<svg width="177" height="169" viewBox="0 0 177 169" fill="none" xmlns="http://www.w3.org/2000/svg">
<path d="M162.807 75C162.807 116.421 129.228 150 87.8067 150C46.3853 150 12.8067 116.421 12.8067 75C12.8067 33.5786 46.3853 0 87.8067 0C129.228 0 162.807 33.5786 162.807 75Z" fill="#FFD300"/>
<path d="M9.42459 103.098L7.65746 103.716C6.4379 104.143 5.58536 104.767 5.11106 105.594C4.63675 106.42 4.58964 107.377 4.96972 108.464C5.31208 109.443 5.91417 110.126 6.77309 110.506L6.00982 110.773C4.64922 111.249 3.74551 110.848 3.2987 109.57C3.03717 108.796 2.95317 107.996 3.04961 107.18C3.09408 106.802 2.93238 106.579 2.56448 106.512L1.85399 106.397C1.4724 106.345 1.24963 106.506 1.18275 106.874C1.01573 107.994 1.1237 109.102 1.50378 110.188C2.02023 111.665 2.74626 112.65 3.68188 113.142C4.6175 113.634 5.72413 113.657 7.00177 113.21L12.3032 111.356C12.8175 111.176 13.2614 110.928 13.6265 110.614C13.9916 110.3 14.2779 109.92 14.4854 109.475C14.6929 109.03 14.7909 108.512 14.7877 107.917C14.7846 107.322 14.6611 106.676 14.4203 105.988C14.1795 105.299 13.8764 104.726 13.5082 104.258C13.14 103.791 12.732 103.45 12.2924 103.231C11.8527 103.012 11.3841 102.897 10.8946 102.882C10.4052 102.867 9.90329 102.949 9.39721 103.126L9.42459 103.098ZM8.96219 106.062L9.95775 105.714C10.6381 105.476 11.1823 105.435 11.6016 105.596C12.0209 105.756 12.3236 106.116 12.518 106.672C12.898 107.759 12.4258 108.538 11.0984 109.002L8.53482 109.899C8.20342 109.857 7.90398 109.719 7.6448 109.484C7.38562 109.249 7.19821 108.979 7.08796 108.664C6.85005 107.984 6.87839 107.452 7.17588 107.078C7.47337 106.704 8.06038 106.359 8.94809 106.049L8.96219 106.062Z" fill="white"/>
<path d="M9.51724 117.381L10.2016 118.689C10.3768 119.024 10.6377 119.106 10.9804 118.926L15.2794 116.678C15.9336 116.336 16.4779 116.22 16.9242 116.333C17.3705 116.447 17.7426 116.798 18.0481 117.382C18.2966 117.857 18.4493 118.472 18.5063 119.225C18.5328 119.598 18.7288 119.783 19.0944 119.781L19.9237 119.773C20.313 119.778 20.5022 119.59 20.4913 119.209C20.4611 118.203 20.2322 117.291 19.8004 116.466C19.1038 115.134 18.2668 114.292 17.2893 113.94C16.3119 113.589 15.3227 113.67 14.3336 114.187L9.74646 116.586C9.40379 116.766 9.32207 117.027 9.50131 117.369L9.51724 117.381Z" fill="white"/>
<path d="M17.1215 129.674C17.9294 130.846 18.8322 131.537 19.8278 131.758C20.8235 131.979 21.7784 131.77 22.6975 131.136L24.5359 129.87C25.455 129.236 25.991 128.419 26.1389 127.41C26.2868 126.401 25.9508 125.309 25.1429 124.136C24.3351 122.964 23.4273 122.266 22.4316 122.044C21.436 121.823 20.4811 122.033 19.562 122.666L17.7236 123.933C16.8045 124.566 16.2684 125.384 16.1205 126.393C15.9726 127.402 16.2965 128.492 17.1043 129.664L17.1215 129.674ZM19.4919 125.895L20.7657 125.017C21.9259 124.207 22.8363 124.274 23.4896 125.222C24.1578 126.192 23.9056 127.081 22.7404 127.883L21.4666 128.761C20.3014 129.564 19.3883 129.478 18.7201 128.508C18.0596 127.565 18.3144 126.696 19.4797 125.893L19.4919 125.895Z" fill="white"/>
<path d="M27.6716 135.297L28.7787 134.268C29.8218 133.286 30.816 133.31 31.7676 134.333C32.1746 134.771 32.4883 135.379 32.7152 136.152C32.8134 136.529 33.0449 136.662 33.4156 136.557L34.1888 136.33C34.5535 136.219 34.6863 135.988 34.5872 135.636C34.3095 134.55 33.8143 133.63 33.1081 132.87C32.0847 131.77 31.0552 131.179 30.0195 131.098C28.9839 131.017 28.0512 131.356 27.2338 132.116L25.6311 133.606C24.8072 134.372 24.3952 135.271 24.401 136.31C24.4067 137.349 24.9213 138.419 25.9448 139.519C26.6873 140.305 27.6115 140.886 28.7112 141.255C29.055 141.38 29.2955 141.264 29.4328 140.909L29.7152 140.154C29.8465 139.792 29.7309 139.551 29.3623 139.426C28.5584 139.129 27.938 138.746 27.5011 138.276C26.5491 137.265 26.5976 136.272 27.6468 135.296L27.6716 135.297Z" fill="white"/>
<path d="M35.9052 142.736L36.0453 142.567L40.3194 146.101C40.6051 146.348 40.8773 146.323 41.1237 146.025L41.9134 145.069C42.6135 144.223 42.8855 143.273 42.7295 142.22C42.5735 141.168 41.9779 140.219 40.9416 139.362C39.9052 138.505 38.856 138.105 37.7995 138.156C36.743 138.206 35.8613 138.651 35.1613 139.498L33.7891 141.158C33.0331 142.072 32.7442 143.042 32.9294 144.073C33.1146 145.105 33.797 146.114 34.9824 147.094C35.9092 147.849 36.9623 148.354 38.1471 148.604C38.5153 148.669 38.7375 148.511 38.8137 148.129L38.9483 147.442C39.0133 147.074 38.8605 146.845 38.4843 146.762C37.5461 146.545 36.7953 146.198 36.233 145.733C35.6979 145.29 35.3855 144.827 35.2891 144.337C35.1927 143.846 35.3909 143.303 35.8837 142.707L35.9052 142.736ZM39.6594 143.616L36.9702 141.393L37.0206 141.332C37.4675 140.778 37.9243 140.46 38.3898 140.366C38.8553 140.272 39.2981 140.398 39.7248 140.751C40.1516 141.104 40.3715 141.514 40.3857 141.993C40.3999 142.472 40.1802 142.986 39.7266 143.535L39.6594 143.616Z" fill="white"/>
<path d="M42.8038 151.808L44.0668 152.573C44.39 152.769 44.6556 152.704 44.8559 152.373L47.3695 148.223C47.752 147.592 48.1576 147.211 48.5983 147.077C49.039 146.943 49.5389 147.051 50.1027 147.392C50.5613 147.67 51.0101 148.116 51.4492 148.732C51.665 149.037 51.9285 149.094 52.2398 148.902L52.9456 148.467C53.281 148.269 53.3454 148.01 53.1388 147.69C52.5921 146.845 51.9242 146.183 51.1273 145.701C49.8418 144.922 48.6899 144.635 47.6716 144.84C46.6533 145.046 45.849 145.627 45.2707 146.582L42.5886 151.01C42.3883 151.34 42.4535 151.606 42.7842 151.806L42.8038 151.808Z" fill="white"/>
<path d="M57.6695 145.272L57.219 146.274C57.0524 146.623 57.1495 146.879 57.5022 147.037L58.8489 147.643C59.2016 147.802 59.4573 147.704 59.6158 147.352L60.0663 146.35C60.2213 146.005 60.1243 145.749 59.7715 145.591L58.4248 144.985C58.0837 144.822 57.8281 144.919 57.6695 145.272ZM56.1018 148.759L52.7536 156.206C52.587 156.555 52.684 156.811 53.0368 156.969L54.3835 157.575C54.7362 157.734 54.9918 157.636 55.1504 157.284L58.4986 149.837C58.6572 149.484 58.5601 149.228 58.2074 149.07L56.8607 148.464C56.516 148.309 56.2603 148.406 56.1018 148.759Z" fill="white"/>
<path d="M61.9395 156.335L62.0136 156.129L67.2346 157.999C67.5875 158.134 67.8347 158.018 67.9651 157.653L68.383 156.487C68.7535 155.453 68.6864 154.467 68.1817 153.53C67.6771 152.593 66.7945 151.903 65.5285 151.45C64.2625 150.997 63.1398 150.977 62.1634 151.384C61.1869 151.79 60.5093 152.509 60.1388 153.543L59.4127 155.57C59.0126 156.687 59.0708 157.698 59.5956 158.605C60.1203 159.512 61.1052 160.228 62.5532 160.747C63.6815 161.142 64.8437 161.259 66.0429 161.091C66.4113 161.027 66.5664 160.803 66.5082 160.418L66.4012 159.726C66.3371 159.358 66.1156 159.194 65.7336 159.244C64.7775 159.359 63.9534 159.288 63.2666 159.042C62.613 158.808 62.1616 158.478 61.9042 158.05C61.6468 157.622 61.6485 157.043 61.9093 156.315L61.9395 156.335ZM65.7692 155.887L62.4843 154.71L62.511 154.636C62.7427 153.962 63.0642 153.508 63.47 153.261C63.8758 153.015 64.3352 152.983 64.8565 153.17C65.3778 153.356 65.7239 153.667 65.9003 154.113C66.0767 154.559 66.0448 155.117 65.8048 155.787L65.7692 155.887Z" fill="white"/>
<path d="M77.7739 158.474L75.6419 157.298C75.3521 157.133 75.152 156.968 75.0414 156.802C74.9309 156.637 74.8945 156.46 74.9339 156.261C75.052 155.666 75.5585 155.462 76.4551 155.641C77.2137 155.791 78.0174 156.166 78.8559 156.772C79.1596 157.002 79.4267 156.966 79.6573 156.662L80.0823 156.101C80.3146 155.789 80.2781 155.522 79.983 155.293C78.9582 154.543 77.8803 154.06 76.751 153.835C75.5355 153.594 74.541 153.638 73.7675 153.969C72.9939 154.299 72.519 154.885 72.3494 155.739C72.2347 156.316 72.306 156.815 72.5633 157.233C72.8207 157.652 73.3763 158.102 74.2388 158.587L76.3328 159.774C76.8883 160.091 77.1283 160.461 77.0444 160.883C76.9793 161.211 76.7917 161.433 76.4799 161.56C76.1681 161.686 75.763 161.695 75.2717 161.597C74.4355 161.431 73.5489 160.977 72.6189 160.246C72.31 159.996 72.036 160.023 71.8054 160.326L71.3219 160.956C71.0913 161.26 71.1192 161.525 71.4125 161.763C72.4564 162.597 73.6379 163.146 74.9654 163.409C76.2327 163.661 77.2806 163.618 78.111 163.273C78.9413 162.927 79.4404 162.309 79.6168 161.421C79.7418 160.792 79.6619 160.247 79.3751 159.796C79.0884 159.345 78.5501 158.897 77.7497 158.461L77.7739 158.474Z" fill="white"/>
<path d="M89.635 151.42L89.6434 152.519C89.6376 152.905 89.8325 153.097 90.2192 153.094L91.6957 153.083C92.0824 153.08 92.2743 152.885 92.2713 152.498L92.2628 151.4C92.2599 151.022 92.065 150.83 91.6783 150.833L90.2018 150.844C89.8238 150.838 89.632 151.033 89.635 151.42ZM89.6645 155.243L89.7275 163.408C89.7217 163.795 89.9166 163.987 90.3033 163.984L91.7798 163.972C92.1665 163.969 92.3583 163.774 92.3554 163.388L92.2923 155.223C92.2893 154.836 92.0945 154.644 91.7078 154.647L90.2313 154.659C89.8534 154.662 89.6615 154.856 89.6645 155.243Z" fill="white"/>
<path d="M102.487 163.078L103.958 162.952C104.335 162.92 104.511 162.711 104.478 162.326L104.038 157.15C103.941 156.003 103.495 155.124 102.711 154.511C101.927 153.899 100.838 153.647 99.4457 153.766C98.0533 153.884 97.0227 154.316 96.3532 155.052C95.6837 155.788 95.3933 156.73 95.4909 157.877L95.9311 163.053C95.9639 163.438 96.1729 163.615 96.5582 163.582L98.0295 163.457C98.4061 163.425 98.5823 163.216 98.5496 162.83L98.1384 157.996C98.0272 156.585 98.5099 155.83 99.5958 155.738C100.708 155.643 101.32 156.305 101.44 157.715L101.851 162.549C101.884 162.935 102.093 163.111 102.478 163.078L102.487 163.078Z" fill="white"/>
<path d="M126.339 156.229L127.74 155.792C128.109 155.677 128.236 155.435 128.121 155.065L126.574 150.107C126.231 149.008 125.64 148.235 124.8 147.788C123.961 147.341 122.928 147.304 121.703 147.686C121.073 147.883 120.545 148.195 120.125 148.621C119.706 149.046 119.441 149.525 119.336 150.045C118.954 149.677 118.467 149.442 117.871 149.333C117.275 149.225 116.663 149.268 116.034 149.465C114.809 149.847 113.98 150.465 113.544 151.31C113.107 152.155 113.061 153.127 113.404 154.226L114.951 159.185C115.067 159.554 115.309 159.681 115.678 159.565L117.087 159.126C117.448 159.013 117.575 158.771 117.46 158.402L116.015 153.77C115.8 153.082 115.749 152.537 115.863 152.133C115.976 151.729 116.276 151.451 116.763 151.3C117.258 151.145 117.671 151.2 118.002 151.465C118.333 151.73 118.602 152.208 118.817 152.896L120.262 157.527C120.377 157.896 120.62 158.023 120.989 157.908L122.398 157.468C122.759 157.356 122.886 157.113 122.771 156.744L121.326 152.113C121.111 151.425 121.06 150.879 121.174 150.476C121.287 150.072 121.587 149.794 122.074 149.642C122.569 149.488 122.982 149.543 123.313 149.808C123.644 150.073 123.913 150.551 124.128 151.239L125.573 155.87C125.688 156.239 125.93 156.366 126.3 156.251L126.339 156.229Z" fill="white"/>
<path d="M126.478 140.952L127.02 141.908C127.203 142.249 127.466 142.322 127.803 142.132L129.087 141.404C129.424 141.214 129.497 140.95 129.306 140.613L128.765 139.657C128.579 139.329 128.315 139.256 127.979 139.446L126.694 140.174C126.361 140.352 126.288 140.616 126.478 140.952ZM128.362 144.279L132.385 151.385C132.568 151.725 132.831 151.798 133.168 151.608L134.453 150.88C134.789 150.69 134.862 150.426 134.672 150.09L130.649 142.984C130.458 142.648 130.195 142.575 129.858 142.765L128.573 143.493C128.244 143.679 128.171 143.943 128.362 144.279Z" fill="white"/>
<path d="M143.738 144.613L144.96 143.784C145.273 143.572 145.325 143.304 145.108 142.984L142.192 138.685C141.546 137.732 140.727 137.183 139.743 137.032C138.76 136.882 137.687 137.195 136.531 137.979C135.374 138.764 134.687 139.644 134.463 140.614C134.239 141.583 134.446 142.547 135.093 143.5L138.008 147.799C138.225 148.119 138.494 148.17 138.814 147.953L140.036 147.124C140.349 146.912 140.4 146.644 140.183 146.324L137.46 142.309C136.673 141.133 136.724 140.238 137.626 139.626C138.55 138.999 139.408 139.278 140.202 140.449L142.925 144.464C143.143 144.784 143.411 144.835 143.731 144.618L143.738 144.613Z" fill="white"/>
<path d="M148.075 127.841L146.986 128.839C146.701 129.1 146.689 129.373 146.95 129.658L150.222 133.229C151.184 134.278 151.257 135.177 150.434 135.931C149.63 136.68 148.747 136.523 147.779 135.467L144.508 131.897C144.253 131.606 143.98 131.594 143.694 131.855L142.606 132.853C142.321 133.114 142.309 133.387 142.57 133.672L146.068 137.489C146.845 138.338 147.735 138.775 148.736 138.787C149.737 138.8 150.752 138.334 151.782 137.39C152.813 136.446 153.365 135.475 153.44 134.476C153.515 133.478 153.163 132.561 152.385 131.712L148.887 127.895C148.633 127.604 148.359 127.592 148.074 127.854L148.075 127.841Z" fill="white"/>
<path d="M150.192 125.491L150.833 126.013C151.12 126.258 151.392 126.231 151.637 125.931L152.414 124.977L156.005 127.902C156.707 128.474 157.465 128.684 158.268 128.533C159.071 128.382 159.814 127.888 160.497 127.05C161.045 126.363 161.436 125.604 161.663 124.769C161.763 124.397 161.615 124.174 161.213 124.097L160.379 123.938C160.021 123.862 159.793 124.017 159.694 124.389C159.58 124.863 159.407 125.243 159.173 125.529C158.951 125.802 158.693 125.966 158.399 126.021C158.105 126.076 157.808 125.981 157.515 125.743L154.08 122.945L155.74 120.907C155.986 120.62 155.958 120.348 155.658 120.104L155.017 119.582C154.723 119.331 154.451 119.359 154.207 119.658L152.547 121.696L150.844 120.308C150.551 120.069 150.278 120.097 150.034 120.397L149.102 121.542C148.856 121.829 148.884 122.101 149.184 122.346L150.887 123.733L150.11 124.687C149.871 124.98 149.899 125.252 150.199 125.497L150.192 125.491Z" fill="white"/>
<path d="M161.7 117.709L161.514 117.591L164.474 112.901C164.683 112.587 164.623 112.32 164.296 112.113L163.248 111.452C162.319 110.866 161.342 110.717 160.318 111.006C159.294 111.295 158.429 112.007 157.711 113.144C156.993 114.281 156.731 115.373 156.915 116.414C157.1 117.456 157.654 118.273 158.583 118.86L160.404 120.009C161.408 120.642 162.407 120.805 163.406 120.49C164.405 120.175 165.319 119.369 166.14 118.068C166.77 117.053 167.137 115.944 167.234 114.737C167.251 114.363 167.066 114.163 166.678 114.136L165.979 114.09C165.606 114.073 165.398 114.254 165.364 114.637C165.268 115.596 165.02 116.384 164.63 117.001C164.26 117.589 163.84 117.958 163.366 118.116C162.892 118.274 162.328 118.147 161.674 117.734L161.7 117.709ZM162.094 113.873L160.232 116.824L160.165 116.781C159.558 116.409 159.185 115.996 159.032 115.547C158.879 115.097 158.948 114.642 159.244 114.173C159.539 113.705 159.918 113.435 160.391 113.36C160.865 113.284 161.403 113.437 162.005 113.817L162.094 113.873Z" fill="white"/>
<path d="M167.099 103.018L165.481 104.838C165.256 105.084 165.05 105.242 164.865 105.314C164.679 105.385 164.498 105.381 164.313 105.299C163.759 105.052 163.672 104.513 164.044 103.678C164.358 102.972 164.901 102.271 165.677 101.587C165.969 101.341 165.992 101.073 165.747 100.781L165.294 100.242C165.041 99.9469 164.772 99.9236 164.484 100.161C163.526 100.995 162.817 101.939 162.349 102.991C161.845 104.123 161.668 105.103 161.819 105.93C161.971 106.758 162.438 107.351 163.233 107.704C163.771 107.944 164.272 107.984 164.737 107.826C165.202 107.667 165.765 107.225 166.428 106.491L168.048 104.71C168.479 104.239 168.894 104.086 169.287 104.261C169.592 104.397 169.768 104.629 169.822 104.961C169.876 105.293 169.796 105.69 169.592 106.148C169.245 106.927 168.607 107.691 167.688 108.437C167.377 108.683 167.342 108.956 167.587 109.248L168.094 109.859C168.34 110.151 168.605 110.182 168.901 109.948C169.946 109.115 170.741 108.083 171.292 106.847C171.817 105.667 172.007 104.635 171.853 103.749C171.699 102.863 171.207 102.239 170.38 101.871C169.794 101.61 169.245 101.568 168.741 101.748C168.238 101.928 167.683 102.354 167.08 103.038L167.099 103.018Z" fill="white"/>
<path d="M52.5469 83.4844V78.5156C52.5469 75.0703 51.7031 72.3984 50.0391 70.4766C48.375 68.5547 46.0078 67.5938 42.9375 67.5938C40.2188 67.5703 37.9688 68.4844 36.2109 70.3125V59.5078C36.2344 58.5 35.7188 57.9844 34.6875 57.9844H30.75C29.7188 57.9609 29.2031 58.4766 29.2031 59.5078V83.5078C29.2031 84.9609 29.4375 86.2969 29.9297 87.4922C30.4219 88.6875 31.125 89.7422 32.0625 90.6562C33 91.5703 34.2188 92.2969 35.7188 92.8125C37.2188 93.3281 38.9297 93.5859 40.875 93.5859C42.8203 93.5859 44.5312 93.3281 46.0312 92.8125C47.5312 92.2969 48.75 91.5703 49.6875 90.6562C50.625 89.7422 51.3281 88.6875 51.8203 87.4688C52.3125 86.25 52.5469 84.9375 52.5469 83.5078V83.4844ZM45.5391 79.4297V82.6641C45.5391 86.4375 43.9688 88.3125 40.8281 88.3125C37.7578 88.3359 36.2109 86.4609 36.2109 82.6875V75.4688C36.6094 74.6484 37.2188 74.0156 38.0391 73.5703C38.8594 73.125 39.7031 72.8906 40.5703 72.8906C42.4453 72.8906 43.7344 73.4062 44.4375 74.4375C45.1406 75.4688 45.4922 77.1328 45.4922 79.4531L45.5391 79.4297ZM58.0312 93H61.9688C62.9766 93 63.4922 92.4844 63.4922 91.4531V78.5156C63.4922 76.5469 63.8906 75.1172 64.7109 74.2031C65.5312 73.2891 66.8203 72.8438 68.5781 72.8438C70.0078 72.8438 71.6484 73.2422 73.5 74.0391C74.4141 74.4375 75.0938 74.2031 75.5391 73.3359L76.5469 71.3672C77.0391 70.4531 76.8281 69.7734 75.9141 69.3281C73.5 68.1562 71.0625 67.5703 68.5781 67.5703C64.5703 67.5703 61.5469 68.5078 59.5078 70.3828C57.4688 72.2578 56.4375 74.6953 56.4375 77.6719V91.4766C56.4375 92.5078 56.9531 93.0234 57.9844 93.0234L58.0312 93ZM81.1875 59.4844V62.4141C81.1641 63.4453 81.6797 63.9609 82.7109 63.9609H86.6484C87.6797 63.9609 88.1953 63.4453 88.1953 62.4141V59.4844C88.1953 58.4766 87.6797 57.9609 86.6484 57.9609H82.7109C81.7031 57.9375 81.1875 58.4531 81.1875 59.4844ZM81.1875 69.6797V91.4531C81.1641 92.4844 81.6797 93 82.7109 93H86.6484C87.6797 93 88.1953 92.4844 88.1953 91.4531V69.6797C88.1953 68.6484 87.6797 68.1328 86.6484 68.1328H82.7109C81.7031 68.1328 81.1875 68.6484 81.1875 69.6797ZM111.375 93H115.312C116.32 93 116.836 92.4844 116.836 91.4531V77.6016C116.836 74.5312 115.852 72.0938 113.906 70.2891C111.961 68.4844 109.125 67.5703 105.398 67.5703C101.672 67.5703 98.8359 68.4844 96.8906 70.2891C94.9453 72.0938 93.9609 74.5312 93.9609 77.6016V91.4531C93.9609 92.4844 94.4766 93 95.5078 93H99.4453C100.453 93 100.969 92.4844 100.969 91.4531V78.5156C100.992 74.7422 102.445 72.8438 105.352 72.8438C108.328 72.8438 109.805 74.7422 109.805 78.5156V91.4531C109.805 92.4844 110.32 93 111.352 93H111.375ZM120.797 77.6484V82.6406C120.797 86.0859 121.617 88.7812 123.281 90.7031C124.945 92.625 127.312 93.5859 130.383 93.5859C133.148 93.5859 135.398 92.6719 137.109 90.8438V93C137.109 96.8438 135.305 98.7656 131.695 98.7656C129.516 98.7422 127.43 98.25 125.461 97.2891C124.547 96.8438 123.844 97.0547 123.352 97.9219L122.438 99.6094C121.969 100.523 122.18 101.227 123.047 101.719C125.719 103.125 128.602 103.828 131.672 103.828C135.844 103.828 138.961 102.867 141.023 100.945C143.086 99.0234 144.117 96.2578 144.117 92.6484V77.6719C144.117 76.2188 143.883 74.8828 143.414 73.6875C142.945 72.4922 142.242 71.4375 141.305 70.5234C140.367 69.6094 139.148 68.9062 137.648 68.3906C136.148 67.875 134.414 67.6172 132.469 67.6172C130.523 67.6172 128.812 67.875 127.312 68.3906C125.812 68.9062 124.594 69.6328 123.656 70.5469C122.719 71.4609 122.016 72.5391 121.547 73.7578C121.078 74.9766 120.844 76.3125 120.844 77.7422L120.797 77.6484ZM127.852 81.4219V78.6094C127.852 76.6875 128.227 75.2812 129 74.3672C129.773 73.4531 130.945 73.0078 132.516 73.0078C135.586 73.0078 137.133 74.8828 137.133 78.6328V85.875C136.734 86.6719 136.125 87.3047 135.305 87.75C134.484 88.1953 133.641 88.4297 132.75 88.4297C130.828 88.4297 129.516 87.8906 128.836 86.8125C128.156 85.7344 127.805 83.9531 127.805 81.4453L127.852 81.4219Z" fill="#5D3EBC"/>
</svg>
