<svg width="177" height="179" viewBox="0 0 177 179" fill="none" xmlns="http://www.w3.org/2000/svg">
<path d="M162.699 75C162.699 116.421 129.12 150 87.699 150C46.2776 150 12.699 116.421 12.699 75C12.699 33.5786 46.2776 0 87.699 0C129.12 0 162.699 33.5786 162.699 75Z" fill="#FFD300"/>
<path d="M8.96158 114.019L7.29952 114.881C6.15247 115.475 5.39669 116.214 5.04401 117.099C4.69133 117.985 4.77992 118.939 5.30978 119.961C5.78706 120.882 6.47967 121.473 7.38357 121.727L6.66569 122.1C5.38599 122.763 4.43469 122.494 3.81181 121.292C3.44345 120.562 3.24733 119.783 3.2275 118.962C3.21802 118.58 3.02645 118.383 2.6528 118.369L1.93323 118.355C1.54802 118.357 1.35033 118.549 1.33612 118.922C1.32903 120.055 1.59244 121.136 2.1223 122.158C2.84226 123.547 3.70013 124.419 4.69592 124.774C5.6917 125.129 6.79043 124.995 7.99211 124.372L12.9783 121.787C13.4621 121.537 13.8664 121.228 14.1834 120.866C14.5005 120.503 14.7303 120.087 14.8728 119.617C15.0154 119.148 15.0391 118.62 14.9519 118.032C14.8647 117.444 14.6513 116.822 14.3156 116.174C13.9798 115.526 13.5988 115.001 13.1682 114.591C12.7377 114.181 12.2855 113.9 11.8194 113.746C11.3533 113.591 10.873 113.543 10.3863 113.598C9.89967 113.652 9.41444 113.804 8.93846 114.051L8.96158 114.019ZM8.92274 117.019L9.85911 116.534C10.499 116.202 11.0319 116.084 11.4697 116.184C11.9075 116.284 12.2579 116.597 12.5289 117.12C13.0588 118.142 12.7015 118.981 11.453 119.628L9.04187 120.878C8.7078 120.883 8.39196 120.789 8.10213 120.593C7.81231 120.396 7.58867 120.156 7.43497 119.859C7.1033 119.22 7.05627 118.69 7.29792 118.277C7.53956 117.865 8.07192 117.441 8.90685 117.008L8.92274 117.019Z" fill="white"/>
<path d="M9.88844 128.895L10.7217 130.114C10.935 130.426 11.2038 130.476 11.523 130.258L15.5282 127.52C16.1376 127.103 16.6646 126.924 17.1211 126.985C17.5777 127.045 17.9884 127.35 18.3604 127.894C18.6629 128.337 18.8868 128.929 19.032 129.671C19.1021 130.038 19.3185 130.199 19.6812 130.153L20.5039 130.049C20.8911 130.007 21.0568 129.798 21.0012 129.421C20.8531 128.426 20.5187 127.547 19.9929 126.778C19.1447 125.537 18.2147 124.8 17.2027 124.565C16.1907 124.331 15.2179 124.527 14.2964 125.157L10.0228 128.079C9.70353 128.297 9.65302 128.566 9.87127 128.885L9.88844 128.895Z" fill="white"/>
<path d="M18.0508 141.087C19.0166 142.133 20.0082 142.689 21.0251 142.767C22.042 142.845 22.9576 142.502 23.7778 141.745L25.4181 140.231C26.2383 139.474 26.6531 138.588 26.6566 137.568C26.6601 136.549 26.1727 135.515 25.207 134.469C24.2412 133.423 23.2436 132.86 22.2267 132.782C21.2098 132.705 20.2942 133.047 19.474 133.804L17.8336 135.319C17.0135 136.076 16.5987 136.961 16.5952 137.981C16.5917 139.001 17.0667 140.034 18.0324 141.08L18.0508 141.087ZM19.862 137.011L20.9987 135.961C22.0325 134.995 22.9431 134.932 23.7241 135.778C24.5229 136.643 24.3992 137.559 23.3594 138.519L22.2228 139.568C21.183 140.528 20.267 140.572 19.4681 139.707C18.6807 138.867 18.8099 137.97 19.8496 137.01L19.862 137.011Z" fill="white"/>
<path d="M28.0004 146.028L28.9679 144.867C29.8781 143.761 30.8672 143.658 31.941 144.552C32.4002 144.935 32.7886 145.499 33.1117 146.237C33.2569 146.598 33.5034 146.7 33.8579 146.549L34.596 146.226C34.9437 146.07 35.046 145.823 34.903 145.487C34.4898 144.445 33.8819 143.595 33.0851 142.932C31.9303 141.97 30.8341 141.514 29.7966 141.565C28.759 141.616 27.8769 142.071 27.1625 142.928L25.7618 144.61C25.0418 145.474 24.7472 146.419 24.8847 147.448C25.0222 148.478 25.6684 149.474 26.8232 150.436C27.6595 151.121 28.6499 151.58 29.7876 151.807C30.1444 151.886 30.3683 151.741 30.4593 151.371L30.6437 150.587C30.728 150.211 30.5828 149.987 30.2013 149.909C29.3663 149.717 28.7023 149.416 28.2093 149.005C27.1367 148.123 27.0588 147.132 27.9757 146.031L28.0004 146.028Z" fill="white"/>
<path d="M36.5919 153.719L36.7065 153.532L41.4394 156.422C41.7574 156.627 42.0232 156.563 42.2247 156.232L42.8707 155.175C43.4433 154.237 43.5776 153.259 43.2737 152.239C42.9697 151.219 42.2453 150.365 41.0977 149.664C39.9501 148.963 38.8547 148.716 37.8161 148.916C36.7774 149.116 35.968 149.682 35.3954 150.62L34.273 152.457C33.6545 153.47 33.5065 154.471 33.8363 155.465C34.1661 156.46 34.985 157.362 36.2977 158.163C37.3223 158.779 38.4365 159.13 39.6448 159.209C40.0185 159.221 40.216 159.032 40.2371 158.644L40.2728 157.945C40.2848 157.571 40.101 157.366 39.7168 157.337C38.7573 157.256 37.9648 157.019 37.3422 156.639C36.7497 156.277 36.3746 155.862 36.2095 155.391C36.0444 154.919 36.1634 154.353 36.5665 153.693L36.5919 153.719ZM40.433 154.057L37.4553 152.238L37.4965 152.171C37.8601 151.558 38.267 151.179 38.7145 151.02C39.1619 150.86 39.6181 150.923 40.0907 151.211C40.5632 151.5 40.8391 151.874 40.9213 152.347C41.0035 152.819 40.8591 153.359 40.488 153.967L40.433 154.057Z" fill="white"/>
<path d="M43.9853 162.917L45.3298 163.527C45.6739 163.683 45.9299 163.587 46.0898 163.235L48.0957 158.818C48.4009 158.145 48.7586 157.719 49.1805 157.534C49.6023 157.349 50.1115 157.397 50.7117 157.669C51.1998 157.891 51.6982 158.282 52.2069 158.841C52.4572 159.119 52.7256 159.144 53.0121 158.917L53.6615 158.401C53.9713 158.165 54.0046 157.9 53.7616 157.607C53.119 156.832 52.3776 156.254 51.5293 155.869C50.1608 155.248 48.9831 155.099 47.9962 155.423C47.0093 155.747 46.2792 156.419 45.8177 157.436L43.6773 162.149C43.5175 162.501 43.6136 162.757 43.9657 162.917L43.9853 162.917Z" fill="white"/>
<path d="M57.1173 155.235L56.743 156.268C56.603 156.629 56.7189 156.876 57.0824 157.008L58.4707 157.511C58.8342 157.643 59.0819 157.527 59.2137 157.163L59.588 156.131C59.7168 155.775 59.6009 155.528 59.2373 155.396L57.8491 154.893C57.4968 154.756 57.2491 154.872 57.1173 155.235ZM55.8146 158.83L53.0325 166.506C52.8925 166.867 53.0084 167.114 53.3719 167.246L54.7601 167.749C55.1237 167.881 55.3714 167.765 55.5032 167.401L58.2853 159.725C58.4171 159.361 58.3012 159.114 57.9376 158.982L56.5494 158.479C56.1941 158.35 55.9464 158.466 55.8146 158.83Z" fill="white"/>
<path d="M62.9343 167.004L62.978 166.788L68.4134 167.89C68.782 167.973 69.0099 167.822 69.0867 167.443L69.3329 166.229C69.5511 165.152 69.3432 164.186 68.7094 163.331C68.0755 162.477 67.103 161.921 65.7851 161.654C64.4671 161.387 63.3533 161.529 62.4452 162.071C61.5372 162.613 60.9698 163.422 60.7516 164.499L60.3239 166.609C60.0883 167.772 60.2909 168.764 60.9404 169.586C61.5898 170.408 62.6674 170.976 64.1749 171.282C65.3481 171.51 66.5152 171.46 67.6778 171.122C68.0332 171.005 68.1544 170.761 68.0416 170.388L67.8365 169.719C67.7202 169.363 67.4775 169.234 67.1066 169.338C66.1769 169.589 65.3511 169.637 64.6362 169.492C63.9557 169.354 63.4616 169.092 63.1455 168.706C62.8293 168.319 62.748 167.746 62.9016 166.988L62.9343 167.004ZM66.66 166.01L63.2402 165.317L63.256 165.239C63.3887 164.54 63.6416 164.044 64.0078 163.742C64.374 163.439 64.8242 163.342 65.3668 163.452C65.9095 163.562 66.2967 163.82 66.5352 164.236C66.7738 164.652 66.8223 165.209 66.6809 165.907L66.66 166.01Z" fill="white"/>
<path d="M78.748 168.41L76.4811 167.521C76.1723 167.395 75.9523 167.258 75.8212 167.108C75.6901 166.959 75.6309 166.787 75.6441 166.586C75.6839 165.98 76.1595 165.712 77.0716 165.772C77.8434 165.823 78.689 166.09 79.5992 166.581C79.9303 166.77 80.1904 166.699 80.3795 166.368L80.7279 165.757C80.9176 165.417 80.8466 165.157 80.5243 164.968C79.4105 164.358 78.2789 164.019 77.13 163.944C75.8934 163.863 74.9132 164.036 74.1892 164.464C73.4653 164.892 73.0707 165.536 73.0137 166.404C72.9751 166.992 73.1106 167.476 73.4202 167.858C73.7299 168.239 74.3394 168.614 75.2577 168.982L77.4884 169.886C78.0803 170.128 78.3665 170.464 78.3383 170.894C78.3164 171.227 78.1594 171.472 77.8666 171.638C77.5739 171.803 77.1735 171.865 76.6736 171.832C75.8229 171.776 74.8848 171.442 73.8675 170.838C73.5288 170.63 73.2605 170.692 73.0714 171.023L72.6739 171.711C72.4848 172.042 72.5471 172.301 72.8688 172.498C74.0125 173.19 75.2552 173.58 76.6058 173.669C77.895 173.753 78.9285 173.575 79.7068 173.124C80.4851 172.673 80.8995 171.995 80.9588 171.092C81.0009 170.452 80.8507 169.922 80.5077 169.512C80.1647 169.102 79.5727 168.729 78.7223 168.4L78.748 168.41Z" fill="white"/>
<path d="M89.0855 161.575L89.1743 162.67C89.1969 163.056 89.4052 163.233 89.7907 163.202L91.2624 163.083C91.6479 163.051 91.8249 162.843 91.7937 162.457L91.7048 161.362C91.6742 160.986 91.4658 160.809 91.0804 160.84L89.6086 160.959C89.2312 160.981 89.0542 161.19 89.0855 161.575ZM89.3948 165.386L90.0554 173.524C90.078 173.91 90.2863 174.087 90.6718 174.056L92.1435 173.936C92.5289 173.905 92.706 173.697 92.6747 173.311L92.0141 165.173C91.9828 164.788 91.7744 164.611 91.389 164.642L89.9173 164.761C89.5406 164.792 89.3635 165 89.3948 165.386Z" fill="white"/>
<path d="M104.481 172.497L105.918 172.16C106.286 172.073 106.43 171.841 106.342 171.464L105.156 166.407C104.893 165.286 104.325 164.481 103.46 163.988C102.595 163.496 101.481 163.405 100.121 163.725C98.7603 164.044 97.8032 164.62 97.2476 165.446C96.692 166.271 96.5414 167.246 96.8043 168.367L97.9907 173.424C98.0791 173.8 98.3115 173.944 98.688 173.856L100.126 173.519C100.493 173.432 100.638 173.2 100.549 172.823L99.4411 168.1C99.1265 166.72 99.4944 165.903 100.555 165.654C101.642 165.399 102.344 165.966 102.667 167.343L103.775 172.067C103.863 172.443 104.096 172.587 104.472 172.499L104.481 172.497Z" fill="white"/>
<path d="M128.132 164.382L129.412 163.664C129.749 163.474 129.823 163.211 129.634 162.874L127.091 158.344C126.528 157.34 125.789 156.707 124.875 156.443C123.962 156.18 122.943 156.359 121.824 156.987C121.249 157.31 120.797 157.725 120.475 158.228C120.153 158.731 119.993 159.255 119.999 159.786C119.548 159.504 119.023 159.376 118.417 159.393C117.812 159.41 117.222 159.58 116.647 159.903C115.529 160.531 114.846 161.307 114.594 162.224C114.343 163.141 114.499 164.102 115.063 165.106L117.605 169.636C117.795 169.973 118.058 170.047 118.395 169.857L119.683 169.135C120.012 168.95 120.086 168.686 119.897 168.349L117.522 164.119C117.169 163.49 117.007 162.967 117.034 162.548C117.061 162.13 117.297 161.796 117.741 161.546C118.194 161.293 118.609 161.261 118.988 161.451C119.367 161.642 119.729 162.053 120.082 162.682L122.457 166.912C122.646 167.25 122.909 167.324 123.246 167.134L124.534 166.412C124.864 166.227 124.938 165.963 124.748 165.626L122.374 161.395C122.021 160.767 121.858 160.244 121.885 159.825C121.913 159.407 122.148 159.073 122.593 158.823C123.045 158.569 123.461 158.538 123.84 158.728C124.219 158.919 124.581 159.33 124.934 159.959L127.308 164.189C127.497 164.526 127.761 164.6 128.098 164.411L128.132 164.382Z" fill="white"/>
<path d="M126.431 151.071L127.045 151.982C127.253 152.308 127.522 152.361 127.842 152.145L129.067 151.32C129.388 151.104 129.441 150.836 129.225 150.515L128.611 149.604C128.4 149.29 128.132 149.238 127.811 149.454L126.586 150.278C126.268 150.482 126.215 150.75 126.431 151.071ZM128.566 154.243L133.124 161.017C133.333 161.343 133.601 161.395 133.922 161.179L135.147 160.355C135.468 160.139 135.52 159.871 135.304 159.55L130.746 152.776C130.53 152.455 130.262 152.402 129.941 152.618L128.716 153.443C128.402 153.654 128.35 153.922 128.566 154.243Z" fill="white"/>
<path d="M144.839 153.337L145.931 152.344C146.211 152.089 146.223 151.816 145.963 151.53L142.468 147.688C141.693 146.836 140.805 146.408 139.81 146.399C138.815 146.389 137.798 146.851 136.764 147.791C135.73 148.732 135.174 149.701 135.09 150.692C135.006 151.684 135.348 152.608 136.123 153.46L139.618 157.302C139.878 157.589 140.151 157.601 140.437 157.341L141.53 156.348C141.809 156.093 141.822 155.82 141.562 155.534L138.297 151.945C137.351 150.893 137.275 149.999 138.082 149.266C138.907 148.515 139.796 148.669 140.748 149.716L144.013 153.304C144.273 153.59 144.546 153.603 144.832 153.343L144.839 153.337Z" fill="white"/>
<path d="M147.901 137.24L146.964 138.381C146.718 138.68 146.745 138.952 147.044 139.198L150.788 142.27C151.888 143.173 152.087 144.053 151.379 144.916C150.689 145.77 149.793 145.74 148.686 144.831L144.942 141.759C144.649 141.507 144.377 141.534 144.131 141.832L143.195 142.974C142.949 143.273 142.976 143.545 143.275 143.79L147.277 147.074C148.167 147.805 149.109 148.112 150.101 147.983C151.094 147.854 152.034 147.249 152.92 146.169C153.807 145.089 154.216 144.049 154.149 143.05C154.082 142.052 153.604 141.193 152.714 140.463L148.713 137.179C148.419 136.926 148.147 136.953 147.902 137.252L147.901 137.24Z" fill="white"/>
<path d="M150.775 135.385L151.472 135.828C151.786 136.038 152.053 135.979 152.26 135.653L152.921 134.615L156.829 137.101C157.593 137.587 158.371 137.707 159.15 137.464C159.93 137.22 160.61 136.642 161.191 135.73C161.655 134.984 161.955 134.185 162.083 133.329C162.138 132.948 161.966 132.744 161.558 132.714L160.711 132.654C160.347 132.62 160.138 132.8 160.083 133.182C160.025 133.666 159.897 134.063 159.699 134.375C159.51 134.671 159.273 134.864 158.987 134.953C158.701 135.042 158.395 134.983 158.076 134.78L154.339 132.402L155.75 130.185C155.96 129.871 155.901 129.604 155.575 129.396L154.877 128.953C154.556 128.738 154.289 128.797 154.081 129.123L152.671 131.341L150.817 130.161C150.498 129.958 150.231 130.017 150.023 130.344L149.231 131.59C149.021 131.904 149.08 132.171 149.406 132.378L151.26 133.558L150.599 134.596C150.397 134.915 150.456 135.182 150.782 135.389L150.775 135.385Z" fill="white"/>
<path d="M162.302 127.066L162.102 126.976L164.376 121.917C164.539 121.576 164.442 121.321 164.089 121.162L162.959 120.654C161.957 120.203 160.969 120.193 159.995 120.622C159.022 121.052 158.265 121.878 157.714 123.104C157.162 124.331 157.055 125.448 157.383 126.454C157.712 127.459 158.375 128.191 159.377 128.642L161.341 129.525C162.423 130.011 163.435 130.032 164.381 129.58C165.326 129.128 166.118 128.203 166.748 126.8C167.231 125.706 167.439 124.557 167.366 123.348C167.331 122.976 167.119 122.804 166.731 122.831L166.033 122.884C165.66 122.919 165.48 123.127 165.5 123.512C165.539 124.474 165.404 125.29 165.105 125.955C164.82 126.588 164.456 127.012 164.009 127.235C163.562 127.458 162.985 127.411 162.28 127.094L162.302 127.066ZM162.155 123.213L160.725 126.395L160.653 126.362C160 126.079 159.572 125.722 159.358 125.299C159.144 124.875 159.148 124.414 159.375 123.909C159.602 123.404 159.939 123.083 160.398 122.943C160.856 122.802 161.41 122.877 162.059 123.169L162.155 123.213Z" fill="white"/>
<path d="M167.141 111.988L165.776 114.004C165.585 114.277 165.402 114.462 165.228 114.557C165.053 114.652 164.873 114.672 164.679 114.615C164.097 114.443 163.94 113.92 164.199 113.043C164.419 112.301 164.865 111.535 165.544 110.755C165.802 110.474 165.79 110.205 165.508 109.947L164.989 109.473C164.699 109.213 164.43 109.225 164.175 109.498C163.334 110.45 162.755 111.48 162.429 112.584C162.077 113.772 162.031 114.767 162.289 115.567C162.548 116.368 163.089 116.894 163.923 117.141C164.488 117.308 164.99 117.282 165.431 117.064C165.871 116.846 166.37 116.333 166.932 115.519L168.305 113.542C168.67 113.017 169.061 112.812 169.474 112.934C169.794 113.029 169.999 113.236 170.096 113.558C170.193 113.88 170.166 114.284 170.024 114.764C169.782 115.582 169.249 116.423 168.436 117.283C168.159 117.568 168.16 117.843 168.442 118.1L169.025 118.639C169.306 118.897 169.573 118.893 169.836 118.623C170.763 117.659 171.416 116.532 171.8 115.234C172.166 113.995 172.219 112.948 171.951 112.09C171.682 111.231 171.112 110.678 170.244 110.421C169.629 110.239 169.079 110.269 168.604 110.514C168.128 110.758 167.633 111.254 167.126 112.011L167.141 111.988Z" fill="white"/>
<path d="M52.7704 83.4835V78.5148C52.7704 75.0695 51.9267 72.3976 50.2626 70.4757C48.5985 68.5538 46.2314 67.5929 43.161 67.5929C40.4423 67.5695 38.1923 68.4835 36.4345 70.3116V59.507C36.4579 58.4991 35.9423 57.9835 34.911 57.9835H30.9735C29.9423 57.9601 29.4267 58.4757 29.4267 59.507V83.507C29.4267 84.9601 29.661 86.296 30.1532 87.4913C30.6454 88.6866 31.3485 89.7413 32.286 90.6554C33.2235 91.5695 34.4423 92.296 35.9423 92.8116C37.4423 93.3273 39.1532 93.5851 41.0985 93.5851C43.0439 93.5851 44.7548 93.3273 46.2548 92.8116C47.7548 92.296 48.9735 91.5695 49.911 90.6554C50.8485 89.7413 51.5517 88.6866 52.0439 87.4679C52.536 86.2491 52.7704 84.9366 52.7704 83.507V83.4835ZM45.7626 79.4288V82.6632C45.7626 86.4366 44.1923 88.3116 41.0517 88.3116C37.9814 88.3351 36.4345 86.4601 36.4345 82.6866V75.4679C36.8329 74.6476 37.4423 74.0148 38.2626 73.5695C39.0829 73.1241 39.9267 72.8898 40.7939 72.8898C42.6689 72.8898 43.9579 73.4054 44.661 74.4366C45.3642 75.4679 45.7157 77.132 45.7157 79.4523L45.7626 79.4288ZM58.2548 92.9991H62.1923C63.2001 92.9991 63.7157 92.4835 63.7157 91.4523V78.5148C63.7157 76.546 64.1142 75.1163 64.9345 74.2023C65.7548 73.2882 67.0439 72.8429 68.8017 72.8429C70.2314 72.8429 71.872 73.2413 73.7235 74.0382C74.6376 74.4366 75.3173 74.2023 75.7626 73.3351L76.7704 71.3663C77.2626 70.4523 77.0517 69.7726 76.1376 69.3273C73.7235 68.1554 71.286 67.5695 68.8017 67.5695C64.7939 67.5695 61.7704 68.507 59.7314 70.382C57.6923 72.257 56.661 74.6945 56.661 77.671V91.4757C56.661 92.507 57.1767 93.0226 58.2079 93.0226L58.2548 92.9991ZM81.411 59.4835V62.4132C81.3876 63.4445 81.9032 63.9601 82.9345 63.9601H86.872C87.9032 63.9601 88.4189 63.4445 88.4189 62.4132V59.4835C88.4189 58.4757 87.9032 57.9601 86.872 57.9601H82.9345C81.9267 57.9366 81.411 58.4523 81.411 59.4835ZM81.411 69.6788V91.4523C81.3876 92.4835 81.9032 92.9991 82.9345 92.9991H86.872C87.9032 92.9991 88.4189 92.4835 88.4189 91.4523V69.6788C88.4189 68.6476 87.9032 68.132 86.872 68.132H82.9345C81.9267 68.132 81.411 68.6476 81.411 69.6788ZM111.599 92.9991H115.536C116.544 92.9991 117.059 92.4835 117.059 91.4523V77.6007C117.059 74.5304 116.075 72.0929 114.13 70.2882C112.184 68.4835 109.349 67.5695 105.622 67.5695C101.895 67.5695 99.0595 68.4835 97.1142 70.2882C95.1689 72.0929 94.1845 74.5304 94.1845 77.6007V91.4523C94.1845 92.4835 94.7001 92.9991 95.7314 92.9991H99.6689C100.677 92.9991 101.192 92.4835 101.192 91.4523V78.5148C101.216 74.7413 102.669 72.8429 105.575 72.8429C108.552 72.8429 110.028 74.7413 110.028 78.5148V91.4523C110.028 92.4835 110.544 92.9991 111.575 92.9991H111.599ZM121.02 77.6476V82.6398C121.02 86.0851 121.841 88.7804 123.505 90.7023C125.169 92.6241 127.536 93.5851 130.606 93.5851C133.372 93.5851 135.622 92.671 137.333 90.8429V92.9991C137.333 96.8429 135.528 98.7648 131.919 98.7648C129.739 98.7413 127.653 98.2491 125.684 97.2882C124.77 96.8429 124.067 97.0538 123.575 97.921L122.661 99.6085C122.192 100.523 122.403 101.226 123.27 101.718C125.942 103.124 128.825 103.827 131.895 103.827C136.067 103.827 139.184 102.866 141.247 100.944C143.309 99.0226 144.341 96.257 144.341 92.6476V77.671C144.341 76.2179 144.106 74.882 143.638 73.6866C143.169 72.4913 142.466 71.4366 141.528 70.5226C140.591 69.6085 139.372 68.9054 137.872 68.3898C136.372 67.8741 134.638 67.6163 132.692 67.6163C130.747 67.6163 129.036 67.8741 127.536 68.3898C126.036 68.9054 124.817 69.632 123.88 70.546C122.942 71.4601 122.239 72.5382 121.77 73.757C121.302 74.9757 121.067 76.3116 121.067 77.7413L121.02 77.6476ZM128.075 81.421V78.6085C128.075 76.6866 128.45 75.2804 129.224 74.3663C129.997 73.4523 131.169 73.007 132.739 73.007C135.809 73.007 137.356 74.882 137.356 78.632V85.8741C136.958 86.671 136.349 87.3038 135.528 87.7491C134.708 88.1945 133.864 88.4288 132.974 88.4288C131.052 88.4288 129.739 87.8898 129.059 86.8116C128.38 85.7335 128.028 83.9523 128.028 81.4445L128.075 81.421Z" fill="#5D3EBC"/>
</svg>
