<svg width="59" height="12" viewBox="0 0 59 12" fill="none" xmlns="http://www.w3.org/2000/svg">
<path d="M6.38672 6.62109V5.37891C6.38672 4.51758 6.17578 3.84961 5.75977 3.36914C5.34375 2.88867 4.75195 2.64844 3.98438 2.64844C3.30469 2.64258 2.74219 2.87109 2.30273 3.32812V0.626953C2.30859 0.375 2.17969 0.246094 1.92188 0.246094H0.9375C0.679688 0.240234 0.550781 0.369141 0.550781 0.626953V6.62695C0.550781 6.99023 0.609375 7.32422 0.732422 7.62305C0.855469 7.92188 1.03125 8.18555 1.26562 8.41406C1.5 8.64258 1.80469 8.82422 2.17969 8.95312C2.55469 9.08203 2.98242 9.14648 3.46875 9.14648C3.95508 9.14648 4.38281 9.08203 4.75781 8.95312C5.13281 8.82422 5.4375 8.64258 5.67188 8.41406C5.90625 8.18555 6.08203 7.92188 6.20508 7.61719C6.32812 7.3125 6.38672 6.98438 6.38672 6.62695V6.62109ZM4.63477 5.60742V6.41602C4.63477 7.35938 4.24219 7.82812 3.45703 7.82812C2.68945 7.83398 2.30273 7.36523 2.30273 6.42188V4.61719C2.40234 4.41211 2.55469 4.25391 2.75977 4.14258C2.96484 4.03125 3.17578 3.97266 3.39258 3.97266C3.86133 3.97266 4.18359 4.10156 4.35938 4.35938C4.53516 4.61719 4.62305 5.0332 4.62305 5.61328L4.63477 5.60742ZM7.75781 9H8.74219C8.99414 9 9.12305 8.87109 9.12305 8.61328V5.37891C9.12305 4.88672 9.22266 4.5293 9.42773 4.30078C9.63281 4.07227 9.95508 3.96094 10.3945 3.96094C10.752 3.96094 11.1621 4.06055 11.625 4.25977C11.8535 4.35938 12.0234 4.30078 12.1348 4.08398L12.3867 3.5918C12.5098 3.36328 12.457 3.19336 12.2285 3.08203C11.625 2.78906 11.0156 2.64258 10.3945 2.64258C9.39258 2.64258 8.63672 2.87695 8.12695 3.3457C7.61719 3.81445 7.35938 4.42383 7.35938 5.16797V8.61914C7.35938 8.87695 7.48828 9.00586 7.74609 9.00586L7.75781 9ZM13.5469 0.621094V1.35352C13.541 1.61133 13.6699 1.74023 13.9277 1.74023H14.9121C15.1699 1.74023 15.2988 1.61133 15.2988 1.35352V0.621094C15.2988 0.369141 15.1699 0.240234 14.9121 0.240234H13.9277C13.6758 0.234375 13.5469 0.363281 13.5469 0.621094ZM13.5469 3.16992V8.61328C13.541 8.87109 13.6699 9 13.9277 9H14.9121C15.1699 9 15.2988 8.87109 15.2988 8.61328V3.16992C15.2988 2.91211 15.1699 2.7832 14.9121 2.7832H13.9277C13.6758 2.7832 13.5469 2.91211 13.5469 3.16992ZM21.0938 9H22.0781C22.3301 9 22.459 8.87109 22.459 8.61328V5.15039C22.459 4.38281 22.2129 3.77344 21.7266 3.32227C21.2402 2.87109 20.5312 2.64258 19.5996 2.64258C18.668 2.64258 17.959 2.87109 17.4727 3.32227C16.9863 3.77344 16.7402 4.38281 16.7402 5.15039V8.61328C16.7402 8.87109 16.8691 9 17.127 9H18.1113C18.3633 9 18.4922 8.87109 18.4922 8.61328V5.37891C18.498 4.43555 18.8613 3.96094 19.5879 3.96094C20.332 3.96094 20.7012 4.43555 20.7012 5.37891V8.61328C20.7012 8.87109 20.8301 9 21.0879 9H21.0938ZM23.4492 5.16211V6.41016C23.4492 7.27148 23.6543 7.94531 24.0703 8.42578C24.4863 8.90625 25.0781 9.14648 25.8457 9.14648C26.5371 9.14648 27.0996 8.91797 27.5273 8.46094V9C27.5273 9.96094 27.0762 10.4414 26.1738 10.4414C25.6289 10.4355 25.1074 10.3125 24.6152 10.0723C24.3867 9.96094 24.2109 10.0137 24.0879 10.2305L23.8594 10.6523C23.7422 10.8809 23.7949 11.0566 24.0117 11.1797C24.6797 11.5312 25.4004 11.707 26.168 11.707C27.2109 11.707 27.9902 11.4668 28.5059 10.9863C29.0215 10.5059 29.2793 9.81445 29.2793 8.91211V5.16797C29.2793 4.80469 29.2207 4.4707 29.1035 4.17188C28.9863 3.87305 28.8105 3.60938 28.5762 3.38086C28.3418 3.15234 28.0371 2.97656 27.6621 2.84766C27.2871 2.71875 26.8535 2.6543 26.3672 2.6543C25.8809 2.6543 25.4531 2.71875 25.0781 2.84766C24.7031 2.97656 24.3984 3.1582 24.1641 3.38672C23.9297 3.61523 23.7539 3.88477 23.6367 4.18945C23.5195 4.49414 23.4609 4.82812 23.4609 5.18555L23.4492 5.16211ZM25.2129 6.10547V5.40234C25.2129 4.92188 25.3066 4.57031 25.5 4.3418C25.6934 4.11328 25.9863 4.00195 26.3789 4.00195C27.1465 4.00195 27.5332 4.4707 27.5332 5.4082V7.21875C27.4336 7.41797 27.2812 7.57617 27.0762 7.6875C26.8711 7.79883 26.6602 7.85742 26.4375 7.85742C25.957 7.85742 25.6289 7.72266 25.459 7.45312C25.2891 7.18359 25.2012 6.73828 25.2012 6.11133L25.2129 6.10547ZM38.2148 9H39.1934C39.4512 9 39.5801 8.87109 39.5801 8.61328V5.15039C39.5801 4.38281 39.3574 3.77344 38.9121 3.32227C38.4668 2.87109 37.8164 2.64258 36.9609 2.64258C36.5215 2.64258 36.123 2.73633 35.7715 2.92383C35.4199 3.11133 35.1562 3.36328 34.9863 3.67383C34.8164 3.36328 34.5527 3.11719 34.1953 2.92969C33.8379 2.74219 33.4395 2.64844 33 2.64844C32.1445 2.64844 31.4941 2.87695 31.0488 3.32812C30.6035 3.7793 30.3809 4.38867 30.3809 5.15625V8.61914C30.3809 8.87695 30.5098 9.00586 30.7676 9.00586H31.752C32.0039 9.00586 32.1328 8.87695 32.1328 8.61914V5.38477C32.1328 4.9043 32.209 4.54688 32.3613 4.3125C32.5137 4.07812 32.7598 3.96094 33.0996 3.96094C33.4453 3.96094 33.6973 4.07812 33.8555 4.3125C34.0137 4.54688 34.0898 4.9043 34.0898 5.38477V8.61914C34.0898 8.87695 34.2188 9.00586 34.4766 9.00586H35.4609C35.7129 9.00586 35.8418 8.87695 35.8418 8.61914V5.38477C35.8418 4.9043 35.918 4.54688 36.0703 4.3125C36.2227 4.07812 36.4688 3.96094 36.8086 3.96094C37.1543 3.96094 37.4062 4.07812 37.5645 4.3125C37.7227 4.54688 37.7988 4.9043 37.7988 5.38477V8.61914C37.7988 8.87695 37.9277 9.00586 38.1855 9.00586L38.2148 9ZM43.4824 9.14648C44.4316 9.14648 45.1523 8.91211 45.6504 8.44922C46.1484 7.98633 46.3945 7.38281 46.3945 6.63867V5.15039C46.3945 4.40625 46.1484 3.80273 45.6504 3.33984C45.1523 2.87695 44.4258 2.64844 43.4766 2.64844C42.5273 2.64844 41.8008 2.88281 41.3027 3.3457C40.8047 3.80859 40.5586 4.41211 40.5586 5.15625V6.64453C40.5586 7.38867 40.8047 7.99219 41.3027 8.45508C41.8008 8.91797 42.5215 9.15234 43.4707 9.15234L43.4824 9.14648ZM42.3047 6.41602V5.38477C42.2988 4.44141 42.6797 3.9668 43.4473 3.9668C44.2324 3.9668 44.625 4.44141 44.625 5.38477V6.41602C44.625 7.35938 44.2324 7.82812 43.4473 7.82812C42.6797 7.83398 42.2988 7.36523 42.2988 6.42188L42.3047 6.41602ZM47.7656 9H48.75C49.002 9 49.1309 8.87109 49.1309 8.61328V5.37891C49.1309 4.88672 49.2305 4.5293 49.4355 4.30078C49.6406 4.07227 49.9629 3.96094 50.4023 3.96094C50.7598 3.96094 51.1699 4.06055 51.6328 4.25977C51.8613 4.35938 52.0312 4.30078 52.1426 4.08398L52.3945 3.5918C52.5176 3.36328 52.4648 3.19336 52.2363 3.08203C51.6328 2.78906 51.0234 2.64258 50.4023 2.64258C49.4004 2.64258 48.6445 2.87695 48.1348 3.3457C47.625 3.81445 47.3672 4.42383 47.3672 5.16797V8.61914C47.3672 8.87695 47.4961 9.00586 47.7539 9.00586L47.7656 9ZM54.5918 6.51562V6.36914H58.2891C58.541 6.375 58.6699 6.24609 58.6699 5.98828V5.16211C58.6699 4.42969 58.4062 3.82617 57.8789 3.35156C57.3516 2.87695 56.6426 2.64258 55.7461 2.64258C54.8496 2.64258 54.1406 2.88281 53.6191 3.35742C53.0977 3.83203 52.834 4.43555 52.834 5.16797V6.60352C52.834 7.39453 53.0977 8.01562 53.6309 8.4668C54.1641 8.91797 54.9434 9.14648 55.9688 9.14648C56.7656 9.14062 57.5215 8.95312 58.2363 8.57812C58.4531 8.45508 58.5 8.2793 58.377 8.05078L58.1543 7.64062C58.0312 7.42383 57.8555 7.37109 57.627 7.48828C57.0527 7.77539 56.5195 7.91602 56.0332 7.91602C55.5703 7.91602 55.2129 7.81055 54.9551 7.59961C54.6973 7.38867 54.5684 7.02539 54.5684 6.50977L54.5918 6.51562ZM56.8945 5.37305H54.5684V5.32031C54.5625 4.8457 54.6621 4.48828 54.8613 4.24219C55.0605 3.99609 55.3418 3.87305 55.7109 3.87305C56.0801 3.87305 56.3672 3.99023 56.5781 4.23047C56.7891 4.4707 56.8945 4.82812 56.8945 5.30273V5.37305Z" fill="#F3F0FE"/>
</svg>
