<svg width="64" height="12" viewBox="0 0 64 12" fill="none" xmlns="http://www.w3.org/2000/svg">
<path d="M6.38672 6.62109V5.37891C6.38672 4.51758 6.17578 3.84961 5.75977 3.36914C5.34375 2.88867 4.75195 2.64844 3.98438 2.64844C3.30469 2.64258 2.74219 2.87109 2.30273 3.32812V0.626953C2.30859 0.375 2.17969 0.246094 1.92188 0.246094H0.9375C0.679688 0.240234 0.550781 0.369141 0.550781 0.626953V6.62695C0.550781 6.99023 0.609375 7.32422 0.732422 7.62305C0.855469 7.92188 1.03125 8.18555 1.26562 8.41406C1.5 8.64258 1.80469 8.82422 2.17969 8.95312C2.55469 9.08203 2.98242 9.14648 3.46875 9.14648C3.95508 9.14648 4.38281 9.08203 4.75781 8.95312C5.13281 8.82422 5.4375 8.64258 5.67188 8.41406C5.90625 8.18555 6.08203 7.92188 6.20508 7.61719C6.32812 7.3125 6.38672 6.98438 6.38672 6.62695V6.62109ZM4.63477 5.60742V6.41602C4.63477 7.35938 4.24219 7.82812 3.45703 7.82812C2.68945 7.83398 2.30273 7.36523 2.30273 6.42188V4.61719C2.40234 4.41211 2.55469 4.25391 2.75977 4.14258C2.96484 4.03125 3.17578 3.97266 3.39258 3.97266C3.86133 3.97266 4.18359 4.10156 4.35938 4.35938C4.53516 4.61719 4.62305 5.0332 4.62305 5.61328L4.63477 5.60742ZM7.75781 9H8.74219C8.99414 9 9.12305 8.87109 9.12305 8.61328V5.37891C9.12305 4.88672 9.22266 4.5293 9.42773 4.30078C9.63281 4.07227 9.95508 3.96094 10.3945 3.96094C10.752 3.96094 11.1621 4.06055 11.625 4.25977C11.8535 4.35938 12.0234 4.30078 12.1348 4.08398L12.3867 3.5918C12.5098 3.36328 12.457 3.19336 12.2285 3.08203C11.625 2.78906 11.0156 2.64258 10.3945 2.64258C9.39258 2.64258 8.63672 2.87695 8.12695 3.3457C7.61719 3.81445 7.35938 4.42383 7.35938 5.16797V8.61914C7.35938 8.87695 7.48828 9.00586 7.74609 9.00586L7.75781 9ZM13.5469 0.621094V1.35352C13.541 1.61133 13.6699 1.74023 13.9277 1.74023H14.9121C15.1699 1.74023 15.2988 1.61133 15.2988 1.35352V0.621094C15.2988 0.369141 15.1699 0.240234 14.9121 0.240234H13.9277C13.6758 0.234375 13.5469 0.363281 13.5469 0.621094ZM13.5469 3.16992V8.61328C13.541 8.87109 13.6699 9 13.9277 9H14.9121C15.1699 9 15.2988 8.87109 15.2988 8.61328V3.16992C15.2988 2.91211 15.1699 2.7832 14.9121 2.7832H13.9277C13.6758 2.7832 13.5469 2.91211 13.5469 3.16992ZM21.0938 9H22.0781C22.3301 9 22.459 8.87109 22.459 8.61328V5.15039C22.459 4.38281 22.2129 3.77344 21.7266 3.32227C21.2402 2.87109 20.5312 2.64258 19.5996 2.64258C18.668 2.64258 17.959 2.87109 17.4727 3.32227C16.9863 3.77344 16.7402 4.38281 16.7402 5.15039V8.61328C16.7402 8.87109 16.8691 9 17.127 9H18.1113C18.3633 9 18.4922 8.87109 18.4922 8.61328V5.37891C18.498 4.43555 18.8613 3.96094 19.5879 3.96094C20.332 3.96094 20.7012 4.43555 20.7012 5.37891V8.61328C20.7012 8.87109 20.8301 9 21.0879 9H21.0938ZM23.4492 5.16211V6.41016C23.4492 7.27148 23.6543 7.94531 24.0703 8.42578C24.4863 8.90625 25.0781 9.14648 25.8457 9.14648C26.5371 9.14648 27.0996 8.91797 27.5273 8.46094V9C27.5273 9.96094 27.0762 10.4414 26.1738 10.4414C25.6289 10.4355 25.1074 10.3125 24.6152 10.0723C24.3867 9.96094 24.2109 10.0137 24.0879 10.2305L23.8594 10.6523C23.7422 10.8809 23.7949 11.0566 24.0117 11.1797C24.6797 11.5312 25.4004 11.707 26.168 11.707C27.2109 11.707 27.9902 11.4668 28.5059 10.9863C29.0215 10.5059 29.2793 9.81445 29.2793 8.91211V5.16797C29.2793 4.80469 29.2207 4.4707 29.1035 4.17188C28.9863 3.87305 28.8105 3.60938 28.5762 3.38086C28.3418 3.15234 28.0371 2.97656 27.6621 2.84766C27.2871 2.71875 26.8535 2.6543 26.3672 2.6543C25.8809 2.6543 25.4531 2.71875 25.0781 2.84766C24.7031 2.97656 24.3984 3.1582 24.1641 3.38672C23.9297 3.61523 23.7539 3.88477 23.6367 4.18945C23.5195 4.49414 23.4609 4.82812 23.4609 5.18555L23.4492 5.16211ZM25.2129 6.10547V5.40234C25.2129 4.92188 25.3066 4.57031 25.5 4.3418C25.6934 4.11328 25.9863 4.00195 26.3789 4.00195C27.1465 4.00195 27.5332 4.4707 27.5332 5.4082V7.21875C27.4336 7.41797 27.2812 7.57617 27.0762 7.6875C26.8711 7.79883 26.6602 7.85742 26.4375 7.85742C25.957 7.85742 25.6289 7.72266 25.459 7.45312C25.2891 7.18359 25.2012 6.73828 25.2012 6.11133L25.2129 6.10547ZM35.9648 9H36.9082C37.1074 9 37.2656 8.92383 37.377 8.76562L38.2734 7.54688C38.5488 7.16016 38.748 6.7793 38.8711 6.41016C38.9941 6.04102 39.0527 5.57812 39.0527 5.02734V3.16992C39.0527 2.91211 38.9238 2.7832 38.666 2.7832H37.7578C37.5 2.7832 37.3711 2.91211 37.3711 3.16992V4.83398C37.3711 5.29688 37.3359 5.67773 37.2656 5.98242C37.1953 6.28711 37.0723 6.57422 36.9023 6.83789L36.4336 7.58203C36.1992 7.24219 36.0293 6.97852 35.918 6.79102C35.8066 6.60352 35.707 6.35742 35.625 6.05273C35.543 5.74805 35.502 5.4082 35.502 5.02734V3.16992C35.502 2.91211 35.373 2.7832 35.1152 2.7832H34.2012C33.9492 2.7832 33.8203 2.91211 33.8203 3.16992V5.02734C33.8203 5.44922 33.7852 5.78906 33.7148 6.04688C33.6445 6.30469 33.5215 6.56836 33.3516 6.84375L32.8828 7.58789C32.6543 7.25391 32.4785 6.98438 32.3613 6.77344C32.2441 6.5625 32.1445 6.29297 32.0625 5.96484C31.9805 5.63672 31.9395 5.26172 31.9395 4.83398V3.16992C31.9453 2.91211 31.8164 2.7832 31.5586 2.7832H30.6445C30.3926 2.7832 30.2637 2.91211 30.2637 3.16992V5.02734C30.2637 5.60742 30.3164 6.08203 30.4219 6.45117C30.5273 6.82031 30.7207 7.18945 31.002 7.55859L31.9336 8.7832C32.0449 8.93555 32.2031 9.01172 32.4023 9.01172H33.3516C33.5566 9.01172 33.7148 8.92969 33.8262 8.76562L34.6406 7.53516L35.5078 8.77148C35.6191 8.92969 35.7715 9.01172 35.9648 9.01172V9ZM43.7461 5.12109V5.19727H42.1992C41.4023 5.19727 40.7812 5.36719 40.3359 5.70703C39.8906 6.04688 39.668 6.48047 39.668 7.00195V7.24219C39.668 7.77539 39.9199 8.22656 40.4238 8.5957C40.9277 8.96484 41.6426 9.15234 42.5742 9.15234C43.5293 9.15234 44.2559 8.94141 44.7539 8.51367C45.252 8.08594 45.498 7.4707 45.498 6.66797V5.16797C45.498 4.37109 45.2578 3.75 44.7715 3.31055C44.2852 2.87109 43.5586 2.64844 42.5918 2.64844C41.7422 2.64844 40.9453 2.85352 40.2012 3.25781C39.9785 3.38086 39.9316 3.55664 40.0605 3.78516L40.2715 4.16016C40.3945 4.37695 40.5703 4.42383 40.7988 4.30664C41.3906 4.01953 41.9297 3.87305 42.416 3.87305C42.8555 3.87305 43.1836 3.97266 43.4062 4.16602C43.6289 4.35938 43.7402 4.68164 43.7402 5.13281L43.7461 5.12109ZM41.4141 7.1543V6.98438C41.4141 6.74414 41.502 6.55664 41.6836 6.42773C41.8652 6.29883 42.123 6.23438 42.457 6.23438H43.7402V6.71484C43.7402 7.0957 43.6406 7.39453 43.4355 7.61133C43.2305 7.82812 42.9492 7.93945 42.5859 7.93945C42.2051 7.93945 41.9121 7.86914 41.7129 7.72266C41.5137 7.57617 41.4141 7.38867 41.4141 7.16016V7.1543ZM45.873 3.16992V3.7207C45.8672 3.97266 45.9961 4.10156 46.2539 4.10156H47.0742V7.18945C47.0742 7.79297 47.2852 8.27344 47.7012 8.625C48.1172 8.97656 48.6855 9.15234 49.4062 9.15234C49.9922 9.14648 50.5488 9.0293 51.0762 8.79492C51.3105 8.68945 51.3633 8.51953 51.2344 8.2793L50.9648 7.78125C50.8535 7.56445 50.6777 7.51172 50.4434 7.61719C50.1504 7.75781 49.8809 7.82812 49.6348 7.82812C49.4004 7.82812 49.207 7.76367 49.0547 7.63477C48.9023 7.50586 48.8262 7.3125 48.8262 7.06055V4.10742H50.5781C50.8301 4.11328 50.959 3.98438 50.959 3.72656V3.17578C50.9648 2.91797 50.8359 2.78906 50.5781 2.78906H48.8262V1.32422C48.8262 1.07227 48.6973 0.943359 48.4395 0.943359H47.4551C47.2031 0.9375 47.0742 1.06641 47.0742 1.32422V2.78906H46.2539C46.002 2.78906 45.873 2.91797 45.873 3.17578V3.16992ZM53.7012 6.51562V6.36914H57.3984C57.6504 6.375 57.7793 6.24609 57.7793 5.98828V5.16211C57.7793 4.42969 57.5156 3.82617 56.9883 3.35156C56.4609 2.87695 55.752 2.64258 54.8555 2.64258C53.959 2.64258 53.25 2.88281 52.7285 3.35742C52.207 3.83203 51.9434 4.43555 51.9434 5.16797V6.60352C51.9434 7.39453 52.207 8.01562 52.7402 8.4668C53.2734 8.91797 54.0527 9.14648 55.0781 9.14648C55.875 9.14062 56.6309 8.95312 57.3457 8.57812C57.5625 8.45508 57.6094 8.2793 57.4863 8.05078L57.2637 7.64062C57.1406 7.42383 56.9648 7.37109 56.7363 7.48828C56.1621 7.77539 55.6289 7.91602 55.1426 7.91602C54.6797 7.91602 54.3223 7.81055 54.0645 7.59961C53.8066 7.38867 53.6777 7.02539 53.6777 6.50977L53.7012 6.51562ZM56.0039 5.37305H53.6777V5.32031C53.6719 4.8457 53.7715 4.48828 53.9707 4.24219C54.1699 3.99609 54.4512 3.87305 54.8203 3.87305C55.1895 3.87305 55.4766 3.99023 55.6875 4.23047C55.8984 4.4707 56.0039 4.82812 56.0039 5.30273V5.37305ZM59.1445 9H60.1289C60.3809 9 60.5098 8.87109 60.5098 8.61328V5.37891C60.5098 4.88672 60.6094 4.5293 60.8145 4.30078C61.0195 4.07227 61.3418 3.96094 61.7812 3.96094C62.1387 3.96094 62.5488 4.06055 63.0117 4.25977C63.2402 4.35938 63.4102 4.30078 63.5215 4.08398L63.7734 3.5918C63.8965 3.36328 63.8438 3.19336 63.6152 3.08203C63.0117 2.78906 62.4023 2.64258 61.7812 2.64258C60.7793 2.64258 60.0234 2.87695 59.5137 3.3457C59.0039 3.81445 58.7461 4.42383 58.7461 5.16797V8.61914C58.7461 8.87695 58.875 9.00586 59.1328 9.00586L59.1445 9Z" fill="#F3F0FE"/>
</svg>
