<svg width="55" height="12" viewBox="0 0 55 12" fill="none" xmlns="http://www.w3.org/2000/svg">
<path d="M6.38672 6.62109V5.37891C6.38672 4.51758 6.17578 3.84961 5.75977 3.36914C5.34375 2.88867 4.75195 2.64844 3.98438 2.64844C3.30469 2.64258 2.74219 2.87109 2.30273 3.32812V0.626953C2.30859 0.375 2.17969 0.246094 1.92188 0.246094H0.9375C0.679688 0.240234 0.550781 0.369141 0.550781 0.626953V6.62695C0.550781 6.99023 0.609375 7.32422 0.732422 7.62305C0.855469 7.92188 1.03125 8.18555 1.26562 8.41406C1.5 8.64258 1.80469 8.82422 2.17969 8.95312C2.55469 9.08203 2.98242 9.14648 3.46875 9.14648C3.95508 9.14648 4.38281 9.08203 4.75781 8.95312C5.13281 8.82422 5.4375 8.64258 5.67188 8.41406C5.90625 8.18555 6.08203 7.92188 6.20508 7.61719C6.32812 7.3125 6.38672 6.98438 6.38672 6.62695V6.62109ZM4.63477 5.60742V6.41602C4.63477 7.35938 4.24219 7.82812 3.45703 7.82812C2.68945 7.83398 2.30273 7.36523 2.30273 6.42188V4.61719C2.40234 4.41211 2.55469 4.25391 2.75977 4.14258C2.96484 4.03125 3.17578 3.97266 3.39258 3.97266C3.86133 3.97266 4.18359 4.10156 4.35938 4.35938C4.53516 4.61719 4.62305 5.0332 4.62305 5.61328L4.63477 5.60742ZM7.75781 9H8.74219C8.99414 9 9.12305 8.87109 9.12305 8.61328V5.37891C9.12305 4.88672 9.22266 4.5293 9.42773 4.30078C9.63281 4.07227 9.95508 3.96094 10.3945 3.96094C10.752 3.96094 11.1621 4.06055 11.625 4.25977C11.8535 4.35938 12.0234 4.30078 12.1348 4.08398L12.3867 3.5918C12.5098 3.36328 12.457 3.19336 12.2285 3.08203C11.625 2.78906 11.0156 2.64258 10.3945 2.64258C9.39258 2.64258 8.63672 2.87695 8.12695 3.3457C7.61719 3.81445 7.35938 4.42383 7.35938 5.16797V8.61914C7.35938 8.87695 7.48828 9.00586 7.74609 9.00586L7.75781 9ZM13.5469 0.621094V1.35352C13.541 1.61133 13.6699 1.74023 13.9277 1.74023H14.9121C15.1699 1.74023 15.2988 1.61133 15.2988 1.35352V0.621094C15.2988 0.369141 15.1699 0.240234 14.9121 0.240234H13.9277C13.6758 0.234375 13.5469 0.363281 13.5469 0.621094ZM13.5469 3.16992V8.61328C13.541 8.87109 13.6699 9 13.9277 9H14.9121C15.1699 9 15.2988 8.87109 15.2988 8.61328V3.16992C15.2988 2.91211 15.1699 2.7832 14.9121 2.7832H13.9277C13.6758 2.7832 13.5469 2.91211 13.5469 3.16992ZM21.0938 9H22.0781C22.3301 9 22.459 8.87109 22.459 8.61328V5.15039C22.459 4.38281 22.2129 3.77344 21.7266 3.32227C21.2402 2.87109 20.5312 2.64258 19.5996 2.64258C18.668 2.64258 17.959 2.87109 17.4727 3.32227C16.9863 3.77344 16.7402 4.38281 16.7402 5.15039V8.61328C16.7402 8.87109 16.8691 9 17.127 9H18.1113C18.3633 9 18.4922 8.87109 18.4922 8.61328V5.37891C18.498 4.43555 18.8613 3.96094 19.5879 3.96094C20.332 3.96094 20.7012 4.43555 20.7012 5.37891V8.61328C20.7012 8.87109 20.8301 9 21.0879 9H21.0938ZM23.4492 5.16211V6.41016C23.4492 7.27148 23.6543 7.94531 24.0703 8.42578C24.4863 8.90625 25.0781 9.14648 25.8457 9.14648C26.5371 9.14648 27.0996 8.91797 27.5273 8.46094V9C27.5273 9.96094 27.0762 10.4414 26.1738 10.4414C25.6289 10.4355 25.1074 10.3125 24.6152 10.0723C24.3867 9.96094 24.2109 10.0137 24.0879 10.2305L23.8594 10.6523C23.7422 10.8809 23.7949 11.0566 24.0117 11.1797C24.6797 11.5312 25.4004 11.707 26.168 11.707C27.2109 11.707 27.9902 11.4668 28.5059 10.9863C29.0215 10.5059 29.2793 9.81445 29.2793 8.91211V5.16797C29.2793 4.80469 29.2207 4.4707 29.1035 4.17188C28.9863 3.87305 28.8105 3.60938 28.5762 3.38086C28.3418 3.15234 28.0371 2.97656 27.6621 2.84766C27.2871 2.71875 26.8535 2.6543 26.3672 2.6543C25.8809 2.6543 25.4531 2.71875 25.0781 2.84766C24.7031 2.97656 24.3984 3.1582 24.1641 3.38672C23.9297 3.61523 23.7539 3.88477 23.6367 4.18945C23.5195 4.49414 23.4609 4.82812 23.4609 5.18555L23.4492 5.16211ZM25.2129 6.10547V5.40234C25.2129 4.92188 25.3066 4.57031 25.5 4.3418C25.6934 4.11328 25.9863 4.00195 26.3789 4.00195C27.1465 4.00195 27.5332 4.4707 27.5332 5.4082V7.21875C27.4336 7.41797 27.2812 7.57617 27.0762 7.6875C26.8711 7.79883 26.6602 7.85742 26.4375 7.85742C25.957 7.85742 25.6289 7.72266 25.459 7.45312C25.2891 7.18359 25.2012 6.73828 25.2012 6.11133L25.2129 6.10547ZM30.0293 3.16992V3.7207C30.0234 3.97266 30.1523 4.10156 30.4102 4.10156H31.2305V8.61328C31.2246 8.87109 31.3535 9 31.6113 9H32.5957C32.8535 9 32.9824 8.87109 32.9824 8.61328V4.10156H34.7344C34.9863 4.10742 35.1152 3.97852 35.1152 3.7207V3.16992C35.1211 2.91211 34.9922 2.7832 34.7344 2.7832H32.9824V2.2207C32.9824 1.96875 33.0586 1.77539 33.2109 1.64062C33.3633 1.50586 33.5566 1.44141 33.791 1.44141C34.0547 1.43555 34.3359 1.48828 34.6348 1.59961C34.8691 1.6875 35.0391 1.62891 35.1504 1.42383L35.3965 0.972656C35.5312 0.732422 35.4785 0.5625 35.2324 0.462891C34.6992 0.246094 34.1602 0.140625 33.6152 0.140625C32.8418 0.140625 32.25 0.322266 31.8398 0.679688C31.4297 1.03711 31.2246 1.53516 31.2246 2.16797V2.77734H30.4043C30.1523 2.77734 30.0234 2.90625 30.0234 3.16406L30.0293 3.16992ZM38.5254 9.14648C39.4746 9.14648 40.1953 8.91211 40.6934 8.44922C41.1914 7.98633 41.4375 7.38281 41.4375 6.63867V5.15039C41.4375 4.40625 41.1914 3.80273 40.6934 3.33984C40.1953 2.87695 39.4688 2.64844 38.5195 2.64844C37.5703 2.64844 36.8438 2.88281 36.3457 3.3457C35.8477 3.80859 35.6016 4.41211 35.6016 5.15625V6.64453C35.6016 7.38867 35.8477 7.99219 36.3457 8.45508C36.8438 8.91797 37.5645 9.15234 38.5137 9.15234L38.5254 9.14648ZM37.3477 6.41602V5.38477C37.3418 4.44141 37.7227 3.9668 38.4902 3.9668C39.2754 3.9668 39.668 4.44141 39.668 5.38477V6.41602C39.668 7.35938 39.2754 7.82812 38.4902 7.82812C37.7227 7.83398 37.3418 7.36523 37.3418 6.42188L37.3477 6.41602ZM45.2168 9.14648C46.166 9.14648 46.8867 8.91211 47.3848 8.44922C47.8828 7.98633 48.1289 7.38281 48.1289 6.63867V5.15039C48.1289 4.40625 47.8828 3.80273 47.3848 3.33984C46.8867 2.87695 46.1602 2.64844 45.2109 2.64844C44.2617 2.64844 43.5352 2.88281 43.0371 3.3457C42.5391 3.80859 42.293 4.41211 42.293 5.15625V6.64453C42.293 7.38867 42.5391 7.99219 43.0371 8.45508C43.5352 8.91797 44.2559 9.15234 45.2051 9.15234L45.2168 9.14648ZM44.0391 6.41602V5.38477C44.0332 4.44141 44.4141 3.9668 45.1816 3.9668C45.9668 3.9668 46.3594 4.44141 46.3594 5.38477V6.41602C46.3594 7.35938 45.9668 7.82812 45.1816 7.82812C44.4141 7.83398 44.0332 7.36523 44.0332 6.42188L44.0391 6.41602ZM48.9961 5.37891V6.62109C48.9961 6.98438 49.0547 7.31836 49.1719 7.61719C49.2891 7.91602 49.4648 8.17969 49.6992 8.4082C49.9336 8.63672 50.2383 8.81836 50.6133 8.94727C50.9883 9.07617 51.416 9.14062 51.9023 9.14062C52.3887 9.14062 52.8164 9.07617 53.1914 8.94727C53.5664 8.81836 53.8711 8.63672 54.1055 8.4082C54.3398 8.17969 54.5156 7.91602 54.6328 7.61133C54.75 7.30664 54.8086 6.97852 54.8086 6.62109V0.621094C54.8145 0.369141 54.6855 0.240234 54.4277 0.240234H53.4434C53.1855 0.234375 53.0566 0.363281 53.0566 0.621094V3.32227C52.8691 3.12305 52.6289 2.95898 52.3359 2.83008C52.043 2.70117 51.7207 2.63672 51.3691 2.63672C50.6074 2.63672 50.0156 2.87695 49.5996 3.36328C49.1836 3.84961 48.9727 4.51758 48.9727 5.37305L48.9961 5.37891ZM50.7246 6.4043V5.5957C50.7246 5.01562 50.8125 4.59961 50.9883 4.3418C51.1641 4.08398 51.4863 3.95508 51.9609 3.95508C52.1836 3.95508 52.3945 4.01367 52.5938 4.125C52.793 4.23633 52.9453 4.39453 53.0449 4.59961V6.4043C53.0449 7.34766 52.6582 7.81641 51.8906 7.81641C51.1113 7.82227 50.7188 7.35352 50.7188 6.41016L50.7246 6.4043Z" fill="#F3F0FE"/>
</svg>
