<svg width="178" height="169" viewBox="0 0 178 169" fill="none" xmlns="http://www.w3.org/2000/svg">
<path d="M163.475 75.0009C163.475 116.422 129.897 150.001 88.4754 150.001C47.054 150.001 13.4754 116.422 13.4754 75.0009C13.4754 33.5795 47.054 0.000854492 88.4754 0.000854492C129.897 0.000854492 163.475 33.5795 163.475 75.0009Z" fill="#FFD300"/>
<path d="M9.73814 104.02L8.07609 104.882C6.92904 105.476 6.17325 106.215 5.82057 107.1C5.4679 107.986 5.55649 108.94 6.08635 109.962C6.56362 110.883 7.25623 111.474 8.16014 111.728L7.44226 112.1C6.16255 112.764 5.21126 112.495 4.58837 111.293C4.22002 110.563 4.0239 109.784 4.00407 108.962C3.99458 108.581 3.80302 108.384 3.42936 108.369L2.7098 108.356C2.32458 108.358 2.12689 108.55 2.11268 108.923C2.1056 110.055 2.36901 111.137 2.89886 112.159C3.61882 113.548 4.4767 114.42 5.47248 114.775C6.46827 115.13 7.567 114.996 8.76867 114.373L13.7548 111.788C14.2386 111.538 14.643 111.229 14.96 110.867C15.2771 110.504 15.5069 110.088 15.6494 109.618C15.7919 109.148 15.8157 108.621 15.7285 108.033C15.6413 107.445 15.4278 106.823 15.0921 106.175C14.7564 105.527 14.3753 105.002 13.9448 104.592C13.5143 104.181 13.062 103.901 12.5959 103.747C12.1298 103.592 11.6495 103.544 11.1629 103.598C10.6762 103.653 10.191 103.805 9.71502 104.052L9.73814 104.02ZM9.69931 107.02L10.6357 106.535C11.2755 106.203 11.8084 106.085 12.2462 106.185C12.684 106.285 13.0345 106.598 13.3055 107.121C13.8354 108.143 13.4781 108.982 12.2296 109.629L9.81843 110.879C9.48437 110.884 9.16852 110.79 8.8787 110.594C8.58888 110.397 8.36524 110.157 8.21154 109.86C7.87987 109.22 7.83284 108.69 8.07448 108.278C8.31613 107.866 8.84849 107.441 9.68342 107.009L9.69931 107.02Z" fill="white"/>
<path d="M10.665 118.896L11.4983 120.114C11.7116 120.426 11.9803 120.477 12.2996 120.259L16.3047 117.521C16.9142 117.104 17.4411 116.925 17.8977 116.985C18.3543 117.046 18.7649 117.351 19.1369 117.895C19.4395 118.338 19.6634 118.93 19.8085 119.672C19.8786 120.039 20.095 120.2 20.4577 120.154L21.2805 120.049C21.6676 120.008 21.8334 119.799 21.7778 119.422C21.6297 118.427 21.2952 117.548 20.7695 116.779C19.9213 115.538 18.9912 114.801 17.9792 114.566C16.9673 114.332 15.9944 114.528 15.0729 115.158L10.7993 118.08C10.4801 118.298 10.4296 118.567 10.6478 118.886L10.665 118.896Z" fill="white"/>
<path d="M18.8274 131.088C19.7931 132.134 20.7847 132.69 21.8017 132.768C22.8186 132.846 23.7342 132.503 24.5543 131.746L26.1947 130.232C27.0149 129.475 27.4297 128.589 27.4332 127.569C27.4367 126.549 26.9493 125.516 25.9835 124.47C25.0178 123.424 24.0202 122.861 23.0033 122.783C21.9864 122.705 21.0708 123.048 20.2506 123.805L18.6102 125.319C17.79 126.077 17.3752 126.962 17.3718 127.982C17.3683 129.002 17.8432 130.034 18.809 131.081L18.8274 131.088ZM20.6386 127.012L21.7753 125.962C22.8091 124.996 23.7197 124.933 24.5006 125.779C25.2995 126.644 25.1758 127.56 24.136 128.52L22.9994 129.569C21.9596 130.529 21.0435 130.573 20.2447 129.708C19.4573 128.868 19.5864 127.971 20.6262 127.011L20.6386 127.012Z" fill="white"/>
<path d="M28.777 136.029L29.7445 134.868C30.6546 133.761 31.6438 133.659 32.7175 134.553C33.1768 134.936 33.5651 135.499 33.8883 136.237C34.0335 136.599 34.28 136.701 34.6344 136.55L35.3726 136.227C35.7203 136.071 35.8226 135.824 35.6796 135.488C35.2664 134.446 34.6585 133.596 33.8616 132.932C32.7068 131.971 31.6107 131.515 30.5731 131.566C29.5356 131.617 28.6534 132.072 27.9391 132.929L26.5384 134.611C25.8184 135.475 25.5238 136.419 25.6613 137.449C25.7988 138.479 26.445 139.474 27.5998 140.436C28.436 141.122 29.4264 141.58 30.5642 141.807C30.9209 141.887 31.1448 141.742 31.2359 141.372L31.4203 140.587C31.5046 140.212 31.3594 139.988 30.9779 139.91C30.1428 139.718 29.4788 139.416 28.9858 139.006C27.9132 138.124 27.8353 137.132 28.7522 136.032L28.777 136.029Z" fill="white"/>
<path d="M37.3685 143.72L37.483 143.532L42.216 146.423C42.5339 146.628 42.7997 146.563 43.0013 146.233L43.6472 145.176C44.2199 144.238 44.3542 143.259 44.0502 142.24C43.7462 141.22 43.0219 140.365 41.8743 139.664C40.7267 138.964 39.6313 138.717 38.5926 138.917C37.554 139.116 36.7446 139.683 36.1719 140.62L35.0496 142.458C34.4311 143.471 34.283 144.472 34.6128 145.466C34.9427 146.461 35.7616 147.363 37.0742 148.164C38.0989 148.78 39.2131 149.131 40.4214 149.21C40.7951 149.222 40.9925 149.033 41.0137 148.645L41.0493 147.945C41.0613 147.572 40.8775 147.367 40.4934 147.338C39.5338 147.257 38.7413 147.02 38.1188 146.64C37.5262 146.278 37.1511 145.863 36.986 145.392C36.8209 144.92 36.9399 144.354 37.3431 143.694L37.3685 143.72ZM41.2096 144.058L38.2318 142.239L38.273 142.171C38.6366 141.559 39.0436 141.18 39.491 141.02C39.9384 140.861 40.3947 140.923 40.8672 141.212C41.3398 141.501 41.6157 141.875 41.6979 142.348C41.7801 142.82 41.6356 143.36 41.2646 143.968L41.2096 144.058Z" fill="white"/>
<path d="M44.7619 152.917L46.1063 153.528C46.4504 153.684 46.7064 153.588 46.8663 153.236L48.8723 148.818C49.1775 148.146 49.5352 147.72 49.957 147.535C50.3788 147.35 50.888 147.398 51.4882 147.67C51.9764 147.892 52.4748 148.282 52.9835 148.842C53.2338 149.119 53.5022 149.145 53.7887 148.918L54.4381 148.402C54.7478 148.166 54.7812 147.901 54.5381 147.607C53.8956 146.833 53.1541 146.255 52.3059 145.87C50.9374 145.248 49.7597 145.1 48.7728 145.424C47.7858 145.748 47.0558 146.42 46.5943 147.437L44.4539 152.15C44.294 152.502 44.3901 152.758 44.7422 152.918L44.7619 152.917Z" fill="white"/>
<path d="M57.8939 145.236L57.5196 146.269C57.3795 146.629 57.4955 146.877 57.859 147.009L59.2472 147.512C59.6108 147.644 59.8585 147.528 59.9903 147.164L60.3646 146.131C60.4934 145.776 60.3775 145.528 60.0139 145.397L58.6257 144.894C58.2734 144.757 58.0257 144.872 57.8939 145.236ZM56.5912 148.83L53.8091 156.507C53.669 156.867 53.7849 157.115 54.1485 157.247L55.5367 157.75C55.9003 157.882 56.148 157.766 56.2797 157.402L59.0619 149.726C59.1936 149.362 59.0777 149.115 58.7142 148.983L57.326 148.48C56.9706 148.351 56.723 148.467 56.5912 148.83Z" fill="white"/>
<path d="M63.7109 157.005L63.7545 156.789L69.1899 157.891C69.5586 157.974 69.7865 157.823 69.8633 157.444L70.1094 156.23C70.3276 155.153 70.1198 154.187 69.4859 153.332C68.852 152.477 67.8796 151.922 66.5616 151.655C65.2437 151.388 64.1298 151.529 63.2218 152.072C62.3138 152.614 61.7463 153.423 61.5282 154.5L61.1005 156.61C60.8648 157.773 61.0674 158.765 61.7169 159.587C62.3664 160.409 63.444 160.977 64.9514 161.282C66.1247 161.511 67.2917 161.461 68.4543 161.122C68.8097 161.006 68.931 160.762 68.8182 160.389L68.613 159.72C68.4967 159.364 68.254 159.234 67.8832 159.339C66.9534 159.59 66.1277 159.638 65.4127 159.493C64.7322 159.355 64.2382 159.093 63.922 158.706C63.6058 158.319 63.5246 157.747 63.6782 156.989L63.7109 157.005ZM67.4365 156.011L64.0168 155.318L64.0325 155.24C64.1653 154.541 64.4182 154.045 64.7844 153.743C65.1506 153.44 65.6007 153.343 66.1434 153.453C66.6861 153.563 67.0732 153.821 67.3118 154.237C67.5503 154.653 67.5989 155.21 67.4575 155.907L67.4365 156.011Z" fill="white"/>
<path d="M79.5246 158.411L77.2577 157.522C76.9488 157.396 76.7289 157.258 76.5978 157.109C76.4667 156.959 76.4075 156.788 76.4207 156.586C76.4605 155.981 76.9361 155.713 77.8482 155.773C78.62 155.824 79.4656 156.091 80.3758 156.582C80.7069 156.771 80.967 156.7 81.1561 156.369L81.5045 155.758C81.6942 155.418 81.6232 155.158 81.3009 154.969C80.1871 154.359 79.0555 154.02 77.9066 153.945C76.67 153.864 75.6897 154.037 74.9658 154.465C74.2418 154.893 73.8473 155.537 73.7902 156.405C73.7516 156.992 73.8872 157.477 74.1968 157.858C74.5065 158.24 75.116 158.615 76.0343 158.983L78.265 159.887C78.8569 160.129 79.1431 160.465 79.1149 160.894C79.093 161.228 78.936 161.473 78.6432 161.638C78.3505 161.804 77.95 161.866 77.4501 161.833C76.5994 161.777 75.6614 161.443 74.6441 160.839C74.3054 160.631 74.0371 160.693 73.848 161.024L73.4505 161.711C73.2614 162.043 73.3236 162.302 73.6454 162.499C74.789 163.191 76.0318 163.581 77.3824 163.67C78.6716 163.754 79.7051 163.576 80.4834 163.125C81.2617 162.674 81.6761 161.996 81.7354 161.093C81.7775 160.453 81.6273 159.923 81.2843 159.513C80.9413 159.103 80.3493 158.729 79.4989 158.401L79.5246 158.411Z" fill="white"/>
<path d="M89.862 151.576L89.9509 152.671C89.9735 153.057 90.1818 153.234 90.5673 153.203L92.039 153.083C92.4244 153.052 92.6015 152.844 92.5702 152.458L92.4814 151.363C92.4508 150.987 92.2424 150.809 91.857 150.841L90.3852 150.96C90.0078 150.982 89.8307 151.19 89.862 151.576ZM90.1714 155.387L90.832 163.525C90.8545 163.911 91.0629 164.088 91.4484 164.057L92.9201 163.937C93.3055 163.906 93.4826 163.698 93.4513 163.312L92.7907 155.174C92.7594 154.788 92.551 154.611 92.1656 154.643L90.6939 154.762C90.3172 154.793 90.1401 155.001 90.1714 155.387Z" fill="white"/>
<path d="M105.257 162.498L106.695 162.16C107.063 162.074 107.207 161.842 107.119 161.465L105.932 156.408C105.669 155.287 105.101 154.482 104.236 153.989C103.372 153.497 102.258 153.406 100.897 153.725C99.5369 154.045 98.5798 154.621 98.0242 155.447C97.4685 156.272 97.3179 157.246 97.5809 158.367L98.7673 163.424C98.8556 163.801 99.088 163.945 99.4645 163.857L100.902 163.519C101.27 163.433 101.414 163.201 101.326 162.824L100.218 158.101C99.903 156.721 100.271 155.904 101.332 155.655C102.419 155.4 103.12 155.966 103.444 157.344L104.552 162.067C104.64 162.444 104.872 162.588 105.249 162.5L105.257 162.498Z" fill="white"/>
<path d="M128.909 154.383L130.188 153.664C130.526 153.475 130.6 153.212 130.41 152.875L127.868 148.345C127.304 147.341 126.566 146.707 125.652 146.444C124.738 146.181 123.72 146.36 122.601 146.988C122.026 147.31 121.574 147.726 121.251 148.229C120.929 148.732 120.769 149.255 120.775 149.786C120.325 149.505 119.799 149.377 119.194 149.394C118.589 149.411 117.999 149.581 117.424 149.904C116.305 150.532 115.622 151.308 115.371 152.225C115.12 153.142 115.276 154.103 115.839 155.107L118.382 159.636C118.571 159.974 118.834 160.048 119.172 159.858L120.459 159.136C120.789 158.951 120.863 158.687 120.673 158.35L118.299 154.119C117.946 153.491 117.783 152.967 117.81 152.549C117.838 152.131 118.073 151.797 118.518 151.547C118.97 151.293 119.386 151.262 119.765 151.452C120.144 151.642 120.506 152.054 120.859 152.683L123.233 156.913C123.423 157.25 123.686 157.324 124.023 157.135L125.311 156.412C125.64 156.227 125.714 155.964 125.525 155.627L123.15 151.396C122.797 150.768 122.635 150.244 122.662 149.826C122.689 149.408 122.925 149.074 123.369 148.824C123.822 148.57 124.237 148.539 124.616 148.729C124.995 148.919 125.357 149.331 125.71 149.959L128.085 154.19C128.274 154.527 128.537 154.601 128.875 154.412L128.909 154.383Z" fill="white"/>
<path d="M127.208 141.072L127.821 141.983C128.03 142.309 128.298 142.361 128.619 142.146L129.844 141.321C130.165 141.105 130.217 140.837 130.001 140.516L129.388 139.605C129.177 139.291 128.909 139.239 128.588 139.454L127.363 140.279C127.044 140.483 126.992 140.751 127.208 141.072ZM129.342 144.244L133.901 151.018C134.109 151.344 134.378 151.396 134.698 151.18L135.923 150.356C136.244 150.14 136.297 149.871 136.081 149.551L131.522 142.777C131.307 142.456 131.038 142.403 130.717 142.619L129.492 143.443C129.179 143.654 129.126 143.923 129.342 144.244Z" fill="white"/>
<path d="M145.615 143.338L146.708 142.344C146.987 142.09 147 141.817 146.74 141.531L143.244 137.689C142.47 136.837 141.581 136.409 140.586 136.399C139.591 136.39 138.574 136.852 137.54 137.792C136.507 138.733 135.951 139.702 135.866 140.693C135.782 141.685 136.124 142.609 136.899 143.461L140.394 147.303C140.655 147.589 140.928 147.602 141.214 147.342L142.306 146.348C142.586 146.094 142.599 145.821 142.338 145.535L139.074 141.946C138.128 140.894 138.052 140 138.858 139.267C139.684 138.516 140.572 138.67 141.525 139.716L144.789 143.305C145.05 143.591 145.323 143.604 145.609 143.344L145.615 143.338Z" fill="white"/>
<path d="M148.677 127.241L147.74 128.382C147.495 128.681 147.522 128.953 147.821 129.198L151.564 132.271C152.665 133.174 152.864 134.054 152.156 134.916C151.466 135.771 150.57 135.741 149.462 134.832L145.719 131.76C145.425 131.508 145.153 131.534 144.908 131.833L143.971 132.975C143.726 133.274 143.753 133.546 144.052 133.791L148.053 137.075C148.943 137.806 149.885 138.113 150.878 137.984C151.871 137.855 152.81 137.25 153.697 136.17C154.583 135.09 154.993 134.05 154.926 133.051C154.859 132.052 154.381 131.194 153.491 130.463L149.489 127.179C149.196 126.927 148.924 126.954 148.678 127.253L148.677 127.241Z" fill="white"/>
<path d="M151.551 125.385L152.248 125.829C152.562 126.039 152.829 125.98 153.037 125.654L153.698 124.615L157.605 127.102C158.369 127.588 159.147 127.708 159.927 127.464C160.707 127.221 161.387 126.643 161.967 125.731C162.432 124.985 162.732 124.186 162.86 123.33C162.915 122.948 162.742 122.745 162.335 122.715L161.487 122.655C161.123 122.621 160.915 122.801 160.86 123.183C160.802 123.667 160.674 124.064 160.476 124.376C160.287 124.672 160.05 124.865 159.764 124.954C159.478 125.043 159.172 124.984 158.853 124.781L155.116 122.403L156.526 120.186C156.737 119.872 156.677 119.605 156.351 119.397L155.654 118.954C155.333 118.739 155.066 118.798 154.858 119.124L153.447 121.341L151.593 120.162C151.275 119.959 151.008 120.018 150.8 120.345L150.007 121.59C149.797 121.905 149.856 122.171 150.183 122.379L152.037 123.559L151.376 124.597C151.173 124.916 151.232 125.183 151.559 125.39L151.551 125.385Z" fill="white"/>
<path d="M163.079 117.066L162.878 116.976L165.153 111.918C165.316 111.577 165.218 111.321 164.866 111.163L163.736 110.655C162.733 110.204 161.746 110.194 160.772 110.623C159.798 111.053 159.042 111.879 158.49 113.105C157.939 114.331 157.831 115.449 158.16 116.455C158.488 117.46 159.152 118.192 160.154 118.642L162.118 119.525C163.2 120.012 164.212 120.033 165.157 119.581C166.102 119.129 166.894 118.204 167.525 116.801C168.007 115.707 168.216 114.558 168.142 113.349C168.107 112.977 167.896 112.805 167.507 112.832L166.809 112.885C166.437 112.92 166.257 113.128 166.276 113.512C166.316 114.475 166.18 115.291 165.881 115.956C165.597 116.589 165.232 117.013 164.785 117.236C164.338 117.459 163.762 117.412 163.056 117.095L163.079 117.066ZM162.932 113.213L161.501 116.396L161.429 116.363C160.776 116.079 160.348 115.723 160.134 115.299C159.92 114.875 159.925 114.415 160.152 113.91C160.379 113.405 160.716 113.084 161.174 112.943C161.633 112.803 162.187 112.878 162.836 113.17L162.932 113.213Z" fill="white"/>
<path d="M167.918 101.989L166.552 104.005C166.362 104.278 166.179 104.463 166.004 104.558C165.829 104.653 165.649 104.673 165.455 104.615C164.874 104.443 164.717 103.921 164.976 103.044C165.195 102.302 165.642 101.536 166.321 100.756C166.578 100.475 166.566 100.205 166.285 99.9482L165.765 99.4738C165.475 99.214 165.206 99.2261 164.951 99.499C164.111 100.451 163.532 101.481 163.205 102.585C162.854 103.773 162.808 104.768 163.066 105.568C163.324 106.368 163.865 106.895 164.7 107.141C165.264 107.308 165.767 107.283 166.207 107.065C166.647 106.846 167.147 106.334 167.709 105.52L169.081 103.542C169.447 103.018 169.837 102.813 170.25 102.935C170.571 103.029 170.775 103.237 170.873 103.559C170.97 103.881 170.942 104.285 170.8 104.765C170.558 105.583 170.026 106.424 169.213 107.284C168.936 107.569 168.937 107.844 169.218 108.101L169.801 108.64C170.083 108.897 170.35 108.894 170.613 108.623C171.539 107.66 172.193 106.533 172.577 105.235C172.943 103.996 172.996 102.949 172.727 102.09C172.458 101.232 171.889 100.679 171.021 100.422C170.405 100.24 169.856 100.27 169.38 100.515C168.905 100.759 168.41 101.254 167.902 102.012L167.918 101.989Z" fill="white"/>
<path d="M53.5469 83.4844V78.5156C53.5469 75.0703 52.7031 72.3984 51.0391 70.4766C49.375 68.5547 47.0078 67.5938 43.9375 67.5938C41.2188 67.5703 38.9688 68.4844 37.2109 70.3125V59.5078C37.2344 58.5 36.7188 57.9844 35.6875 57.9844H31.75C30.7188 57.9609 30.2031 58.4766 30.2031 59.5078V83.5078C30.2031 84.9609 30.4375 86.2969 30.9297 87.4922C31.4219 88.6875 32.125 89.7422 33.0625 90.6562C34 91.5703 35.2188 92.2969 36.7188 92.8125C38.2188 93.3281 39.9297 93.5859 41.875 93.5859C43.8203 93.5859 45.5312 93.3281 47.0312 92.8125C48.5312 92.2969 49.75 91.5703 50.6875 90.6562C51.625 89.7422 52.3281 88.6875 52.8203 87.4688C53.3125 86.25 53.5469 84.9375 53.5469 83.5078V83.4844ZM46.5391 79.4297V82.6641C46.5391 86.4375 44.9688 88.3125 41.8281 88.3125C38.7578 88.3359 37.2109 86.4609 37.2109 82.6875V75.4688C37.6094 74.6484 38.2188 74.0156 39.0391 73.5703C39.8594 73.125 40.7031 72.8906 41.5703 72.8906C43.4453 72.8906 44.7344 73.4062 45.4375 74.4375C46.1406 75.4688 46.4922 77.1328 46.4922 79.4531L46.5391 79.4297ZM59.0312 93H62.9688C63.9766 93 64.4922 92.4844 64.4922 91.4531V78.5156C64.4922 76.5469 64.8906 75.1172 65.7109 74.2031C66.5312 73.2891 67.8203 72.8438 69.5781 72.8438C71.0078 72.8438 72.6484 73.2422 74.5 74.0391C75.4141 74.4375 76.0938 74.2031 76.5391 73.3359L77.5469 71.3672C78.0391 70.4531 77.8281 69.7734 76.9141 69.3281C74.5 68.1562 72.0625 67.5703 69.5781 67.5703C65.5703 67.5703 62.5469 68.5078 60.5078 70.3828C58.4688 72.2578 57.4375 74.6953 57.4375 77.6719V91.4766C57.4375 92.5078 57.9531 93.0234 58.9844 93.0234L59.0312 93ZM82.1875 59.4844V62.4141C82.1641 63.4453 82.6797 63.9609 83.7109 63.9609H87.6484C88.6797 63.9609 89.1953 63.4453 89.1953 62.4141V59.4844C89.1953 58.4766 88.6797 57.9609 87.6484 57.9609H83.7109C82.7031 57.9375 82.1875 58.4531 82.1875 59.4844ZM82.1875 69.6797V91.4531C82.1641 92.4844 82.6797 93 83.7109 93H87.6484C88.6797 93 89.1953 92.4844 89.1953 91.4531V69.6797C89.1953 68.6484 88.6797 68.1328 87.6484 68.1328H83.7109C82.7031 68.1328 82.1875 68.6484 82.1875 69.6797ZM112.375 93H116.312C117.32 93 117.836 92.4844 117.836 91.4531V77.6016C117.836 74.5312 116.852 72.0938 114.906 70.2891C112.961 68.4844 110.125 67.5703 106.398 67.5703C102.672 67.5703 99.8359 68.4844 97.8906 70.2891C95.9453 72.0938 94.9609 74.5312 94.9609 77.6016V91.4531C94.9609 92.4844 95.4766 93 96.5078 93H100.445C101.453 93 101.969 92.4844 101.969 91.4531V78.5156C101.992 74.7422 103.445 72.8438 106.352 72.8438C109.328 72.8438 110.805 74.7422 110.805 78.5156V91.4531C110.805 92.4844 111.32 93 112.352 93H112.375ZM121.797 77.6484V82.6406C121.797 86.0859 122.617 88.7812 124.281 90.7031C125.945 92.625 128.312 93.5859 131.383 93.5859C134.148 93.5859 136.398 92.6719 138.109 90.8438V93C138.109 96.8438 136.305 98.7656 132.695 98.7656C130.516 98.7422 128.43 98.25 126.461 97.2891C125.547 96.8438 124.844 97.0547 124.352 97.9219L123.438 99.6094C122.969 100.523 123.18 101.227 124.047 101.719C126.719 103.125 129.602 103.828 132.672 103.828C136.844 103.828 139.961 102.867 142.023 100.945C144.086 99.0234 145.117 96.2578 145.117 92.6484V77.6719C145.117 76.2188 144.883 74.8828 144.414 73.6875C143.945 72.4922 143.242 71.4375 142.305 70.5234C141.367 69.6094 140.148 68.9062 138.648 68.3906C137.148 67.875 135.414 67.6172 133.469 67.6172C131.523 67.6172 129.812 67.875 128.312 68.3906C126.812 68.9062 125.594 69.6328 124.656 70.5469C123.719 71.4609 123.016 72.5391 122.547 73.7578C122.078 74.9766 121.844 76.3125 121.844 77.7422L121.797 77.6484ZM128.852 81.4219V78.6094C128.852 76.6875 129.227 75.2812 130 74.3672C130.773 73.4531 131.945 73.0078 133.516 73.0078C136.586 73.0078 138.133 74.8828 138.133 78.6328V85.875C137.734 86.6719 137.125 87.3047 136.305 87.75C135.484 88.1953 134.641 88.4297 133.75 88.4297C131.828 88.4297 130.516 87.8906 129.836 86.8125C129.156 85.7344 128.805 83.9531 128.805 81.4453L128.852 81.4219Z" fill="#5D3EBC"/>
</svg>
