<svg width="15" height="11" viewBox="0 0 15 11" fill="none" xmlns="http://www.w3.org/2000/svg">
<g clip-path="url(#clip0_328_2909)">
<path fill-rule="evenodd" clip-rule="evenodd" d="M0 0H14.6667V11H0V0Z" fill="#E30A17"/>
<path fill-rule="evenodd" clip-rule="evenodd" d="M9.32708 5.6719C9.32708 7.18899 8.07583 8.41961 6.53125 8.41961C4.98666 8.41961 3.73541 7.18899 3.73541 5.66961C3.73541 4.15024 4.98666 2.92419 6.53125 2.92419C8.07583 2.92419 9.32708 4.15482 9.32708 5.6719Z" fill="white"/>
<path fill-rule="evenodd" clip-rule="evenodd" d="M9.46459 5.67183C9.46459 6.88641 8.46542 7.86954 7.23021 7.86954C5.995 7.86954 4.99355 6.88412 4.99355 5.66954C4.99355 4.45495 5.995 3.47412 7.23021 3.47412C8.46542 3.47412 9.46688 4.45725 9.46688 5.67183H9.46459Z" fill="#E30A17"/>
<path fill-rule="evenodd" clip-rule="evenodd" d="M9.87021 4.38852L9.84729 5.40373L8.90083 5.6604L9.83583 5.99269L9.81292 6.9254L10.4202 6.19665L11.3415 6.51748L10.8098 5.73602L11.4583 4.95915L10.4615 5.23415L9.87021 4.38623V4.38852Z" fill="white"/>
</g>
<defs>
<clipPath id="clip0_328_2909">
<rect width="14.6667" height="11" fill="white"/>
</clipPath>
</defs>
</svg>
